<svg width="70" height="60" viewBox="0 0 70 60" fill="none" xmlns="http://www.w3.org/2000/svg">
<path d="M2.78419 0H0V2.36889H2.78419V0Z" fill="black"/>
<path d="M5.56839 0H2.78419V2.36889H5.56839V0Z" fill="black"/>
<path d="M8.35258 0H5.56839V2.36889H8.35258V0Z" fill="black"/>
<path d="M11.1368 0H8.35258V2.36889H11.1368V0Z" fill="black"/>
<path d="M13.921 0H11.1368V2.36889H13.921V0Z" fill="black"/>
<path d="M16.7052 0H13.921V2.36889H16.7052V0Z" fill="black"/>
<path d="M19.4894 0H16.7052V2.36889H19.4894V0Z" fill="black"/>
<path d="M25.0577 0H22.2736V2.36889H25.0577V0Z" fill="black"/>
<path d="M27.8419 0H25.0577V2.36889H27.8419V0Z" fill="black"/>
<path d="M38.9787 0H36.1945V2.36889H38.9787V0Z" fill="black"/>
<path d="M47.3313 0H44.5471V2.36889H47.3313V0Z" fill="black"/>
<path d="M52.8997 0H50.1155V2.36889H52.8997V0Z" fill="black"/>
<path d="M55.6839 0H52.8997V2.36889H55.6839V0Z" fill="black"/>
<path d="M58.4681 0H55.6839V2.36889H58.4681V0Z" fill="black"/>
<path d="M61.2523 0H58.4681V2.36889H61.2523V0Z" fill="black"/>
<path d="M64.0365 0H61.2523V2.36889H64.0365V0Z" fill="black"/>
<path d="M66.8207 0H64.0365V2.36889H66.8207V0Z" fill="black"/>
<path d="M69.6049 0H66.8207V2.36889H69.6049V0Z" fill="black"/>
<path d="M2.78419 2.36889H0V4.73778H2.78419V2.36889Z" fill="black"/>
<path d="M19.4894 2.36889H16.7052L16.7052 4.73778H19.4894V2.36889Z" fill="black"/>
<path d="M36.1945 2.36889H33.4103V4.73778H36.1945V2.36889Z" fill="black"/>
<path d="M38.9787 2.36889H36.1945V4.73778H38.9787V2.36889Z" fill="black"/>
<path d="M47.3313 2.36889H44.5471V4.73778H47.3313V2.36889Z" fill="black"/>
<path d="M52.8997 2.36889H50.1155V4.73778H52.8997V2.36889Z" fill="black"/>
<path d="M69.6049 2.36889H66.8207V4.73778H69.6049V2.36889Z" fill="black"/>
<path d="M2.78419 4.73778H0V7.10667H2.78419V4.73778Z" fill="black"/>
<path d="M8.35258 4.73778H5.56839V7.10667H8.35258V4.73778Z" fill="black"/>
<path d="M11.1368 4.73778H8.35258V7.10667H11.1368V4.73778Z" fill="black"/>
<path d="M13.921 4.73778H11.1368V7.10667H13.921V4.73778Z" fill="black"/>
<path d="M19.4894 4.73778H16.7052V7.10667H19.4894V4.73778Z" fill="black"/>
<path d="M27.8419 4.73778H25.0577V7.10667H27.8419V4.73778Z" fill="black"/>
<path d="M30.6261 4.73778H27.8419V7.10667H30.6261V4.73778Z" fill="black"/>
<path d="M33.4103 4.73778H30.6261V7.10667H33.4103V4.73778Z" fill="black"/>
<path d="M36.1945 4.73778H33.4103V7.10667H36.1945V4.73778Z" fill="black"/>
<path d="M38.9787 4.73778H36.1945V7.10667H38.9787V4.73778Z" fill="black"/>
<path d="M47.3313 4.73778H44.5471V7.10667H47.3313V4.73778Z" fill="black"/>
<path d="M52.8997 4.73778H50.1155V7.10667H52.8997V4.73778Z" fill="black"/>
<path d="M58.4681 4.73778H55.6839V7.10667H58.4681V4.73778Z" fill="black"/>
<path d="M61.2523 4.73778H58.4681V7.10667H61.2523V4.73778Z" fill="black"/>
<path d="M64.0365 4.73778H61.2523V7.10667H64.0365V4.73778Z" fill="black"/>
<path d="M69.6049 4.73778H66.8207V7.10667H69.6049V4.73778Z" fill="black"/>
<path d="M2.78419 7.10667H0V9.47556H2.78419V7.10667Z" fill="black"/>
<path d="M8.35258 7.10667H5.56839V9.47556H8.35258V7.10667Z" fill="black"/>
<path d="M11.1368 7.10667H8.35258V9.47556H11.1368V7.10667Z" fill="black"/>
<path d="M13.921 7.10667H11.1368V9.47556H13.921V7.10667Z" fill="black"/>
<path d="M19.4894 7.10667H16.7052V9.47556H19.4894V7.10667Z" fill="black"/>
<path d="M27.8419 7.10667H25.0577V9.47556H27.8419V7.10667Z" fill="black"/>
<path d="M30.6261 7.10667H27.8419V9.47556H30.6261V7.10667Z" fill="black"/>
<path d="M38.9787 7.10667H36.1945V9.47556H38.9787V7.10667Z" fill="black"/>
<path d="M52.8997 7.10667H50.1155V9.47556H52.8997V7.10667Z" fill="black"/>
<path d="M58.4681 7.10667H55.6839V9.47556H58.4681V7.10667Z" fill="black"/>
<path d="M61.2523 7.10667H58.4681V9.47556H61.2523V7.10667Z" fill="black"/>
<path d="M64.0365 7.10667H61.2523V9.47556H64.0365V7.10667Z" fill="black"/>
<path d="M69.6049 7.10667H66.8207V9.47556H69.6049V7.10667Z" fill="black"/>
<path d="M2.78419 9.47556H0V11.8444H2.78419V9.47556Z" fill="black"/>
<path d="M8.35258 9.47556H5.56839V11.8444H8.35258V9.47556Z" fill="black"/>
<path d="M11.1368 9.47556H8.35258V11.8444H11.1368V9.47556Z" fill="black"/>
<path d="M13.921 9.47556H11.1368V11.8444H13.921V9.47556Z" fill="black"/>
<path d="M19.4894 9.47556H16.7052V11.8444H19.4894V9.47556Z" fill="black"/>
<path d="M25.0577 9.47556H22.2736V11.8444H25.0577V9.47556Z" fill="black"/>
<path d="M30.6261 9.47556H27.8419V11.8444H30.6261V9.47556Z" fill="black"/>
<path d="M33.4103 9.47556H30.6261V11.8444H33.4103V9.47556Z" fill="black"/>
<path d="M36.1945 9.47556H33.4103V11.8444H36.1945V9.47556Z" fill="black"/>
<path d="M41.7629 9.47556H38.9787V11.8444H41.7629V9.47556Z" fill="black"/>
<path d="M52.8997 9.47556H50.1155V11.8444H52.8997V9.47556Z" fill="black"/>
<path d="M58.4681 9.47556H55.6839V11.8444H58.4681V9.47556Z" fill="black"/>
<path d="M61.2523 9.47556H58.4681V11.8444H61.2523V9.47556Z" fill="black"/>
<path d="M64.0365 9.47556H61.2523V11.8444H64.0365V9.47556Z" fill="black"/>
<path d="M69.6049 9.47556H66.8207V11.8444H69.6049V9.47556Z" fill="black"/>
<path d="M2.78419 11.8444H0V14.2133H2.78419V11.8444Z" fill="black"/>
<path d="M19.4894 11.8444H16.7052V14.2133H19.4894V11.8444Z" fill="black"/>
<path d="M41.7629 11.8444H38.9787V14.2133H41.7629V11.8444Z" fill="black"/>
<path d="M52.8997 11.8444H50.1155V14.2133H52.8997V11.8444Z" fill="black"/>
<path d="M69.6049 11.8444H66.8207V14.2133H69.6049V11.8444Z" fill="black"/>
<path d="M2.78419 14.2133H0V16.5822H2.78419V14.2133Z" fill="black"/>
<path d="M5.56839 14.2133L2.78419 14.2133V16.5822H5.56839V14.2133Z" fill="black"/>
<path d="M8.35258 14.2133H5.56839V16.5822H8.35258V14.2133Z" fill="black"/>
<path d="M11.1368 14.2133H8.35258V16.5822H11.1368V14.2133Z" fill="black"/>
<path d="M13.921 14.2133H11.1368V16.5822H13.921V14.2133Z" fill="black"/>
<path d="M16.7052 14.2133L13.921 14.2133V16.5822H16.7052L16.7052 14.2133Z" fill="black"/>
<path d="M19.4894 14.2133H16.7052L16.7052 16.5822H19.4894V14.2133Z" fill="black"/>
<path d="M25.0577 14.2133H22.2736V16.5822H25.0577V14.2133Z" fill="black"/>
<path d="M30.6261 14.2133H27.8419V16.5822H30.6261V14.2133Z" fill="black"/>
<path d="M36.1945 14.2133H33.4103V16.5822H36.1945V14.2133Z" fill="black"/>
<path d="M41.7629 14.2133H38.9787V16.5822H41.7629V14.2133Z" fill="black"/>
<path d="M47.3313 14.2133H44.5471V16.5822H47.3313V14.2133Z" fill="black"/>
<path d="M52.8997 14.2133H50.1155V16.5822H52.8997V14.2133Z" fill="black"/>
<path d="M55.6839 14.2133L52.8997 14.2133V16.5822H55.6839V14.2133Z" fill="black"/>
<path d="M58.4681 14.2133H55.6839V16.5822H58.4681V14.2133Z" fill="black"/>
<path d="M61.2523 14.2133H58.4681V16.5822H61.2523V14.2133Z" fill="black"/>
<path d="M64.0365 14.2133H61.2523V16.5822H64.0365V14.2133Z" fill="black"/>
<path d="M66.8207 14.2133L64.0365 14.2133V16.5822H66.8207V14.2133Z" fill="black"/>
<path d="M69.6049 14.2133H66.8207V16.5822H69.6049V14.2133Z" fill="black"/>
<path d="M25.0577 16.5822H22.2736V18.9511H25.0577V16.5822Z" fill="black"/>
<path d="M30.6261 16.5822H27.8419V18.9511H30.6261V16.5822Z" fill="black"/>
<path d="M36.1945 16.5822H33.4103V18.9511H36.1945V16.5822Z" fill="black"/>
<path d="M38.9787 16.5822H36.1945V18.9511H38.9787V16.5822Z" fill="black"/>
<path d="M44.5471 16.5822H41.7629L41.7629 18.9511H44.5471V16.5822Z" fill="black"/>
<path d="M47.3313 16.5822H44.5471V18.9511H47.3313V16.5822Z" fill="black"/>
<path d="M2.78419 18.9511H0V21.32H2.78419V18.9511Z" fill="black"/>
<path d="M11.1368 18.9511H8.35258V21.32H11.1368V18.9511Z" fill="black"/>
<path d="M13.921 18.9511H11.1368V21.32H13.921V18.9511Z" fill="black"/>
<path d="M16.7052 18.9511H13.921V21.32H16.7052V18.9511Z" fill="black"/>
<path d="M19.4894 18.9511H16.7052V21.32H19.4894V18.9511Z" fill="black"/>
<path d="M22.2736 18.9511H19.4894V21.32H22.2736V18.9511Z" fill="black"/>
<path d="M25.0577 18.9511H22.2736V21.32H25.0577V18.9511Z" fill="black"/>
<path d="M27.8419 18.9511H25.0577V21.32H27.8419V18.9511Z" fill="black"/>
<path d="M38.9787 18.9511H36.1945V21.32H38.9787V18.9511Z" fill="black"/>
<path d="M47.3313 18.9511H44.5471V21.32H47.3313V18.9511Z" fill="black"/>
<path d="M50.1155 18.9511H47.3313V21.32H50.1155V18.9511Z" fill="black"/>
<path d="M52.8997 18.9511H50.1155V21.32H52.8997V18.9511Z" fill="black"/>
<path d="M58.4681 18.9511H55.6839V21.32H58.4681V18.9511Z" fill="black"/>
<path d="M69.6049 18.9511H66.8207V21.32H69.6049V18.9511Z" fill="black"/>
<path d="M5.56839 21.32H2.78419V23.6889H5.56839V21.32Z" fill="black"/>
<path d="M11.1368 21.32H8.35258V23.6889H11.1368V21.32Z" fill="black"/>
<path d="M13.921 21.32H11.1368V23.6889H13.921V21.32Z" fill="black"/>
<path d="M22.2736 21.32H19.4894V23.6889H22.2736V21.32Z" fill="black"/>
<path d="M25.0577 21.32H22.2736V23.6889H25.0577V21.32Z" fill="black"/>
<path d="M36.1945 21.32H33.4103V23.6889H36.1945V21.32Z" fill="black"/>
<path d="M44.5471 21.32H41.7629V23.6889H44.5471V21.32Z" fill="black"/>
<path d="M50.1155 21.32H47.3313V23.6889H50.1155V21.32Z" fill="black"/>
<path d="M52.8997 21.32H50.1155V23.6889H52.8997V21.32Z" fill="black"/>
<path d="M58.4681 21.32H55.6839V23.6889H58.4681V21.32Z" fill="black"/>
<path d="M61.2523 21.32H58.4681V23.6889H61.2523V21.32Z" fill="black"/>
<path d="M64.0365 21.32H61.2523V23.6889H64.0365V21.32Z" fill="black"/>
<path d="M66.8207 21.32H64.0365V23.6889H66.8207V21.32Z" fill="black"/>
<path d="M69.6049 21.32H66.8207V23.6889H69.6049V21.32Z" fill="black"/>
<path d="M2.78419 23.6889H0V26.0578H2.78419V23.6889Z" fill="black"/>
<path d="M5.56839 23.6889H2.78419V26.0578H5.56839V23.6889Z" fill="black"/>
<path d="M11.1368 23.6889H8.35258V26.0578H11.1368V23.6889Z" fill="black"/>
<path d="M13.921 23.6889H11.1368V26.0578H13.921V23.6889Z" fill="black"/>
<path d="M16.7052 23.6889H13.921V26.0578H16.7052V23.6889Z" fill="black"/>
<path d="M19.4894 23.6889H16.7052V26.0578H19.4894V23.6889Z" fill="black"/>
<path d="M22.2736 23.6889H19.4894V26.0578H22.2736V23.6889Z" fill="black"/>
<path d="M27.8419 23.6889H25.0577V26.0578H27.8419V23.6889Z" fill="black"/>
<path d="M33.4103 23.6889H30.6261V26.0578H33.4103V23.6889Z" fill="black"/>
<path d="M36.1945 23.6889H33.4103V26.0578H36.1945V23.6889Z" fill="black"/>
<path d="M41.7629 23.6889H38.9787V26.0578H41.7629L41.7629 23.6889Z" fill="black"/>
<path d="M47.3313 23.6889H44.5471V26.0578H47.3313V23.6889Z" fill="black"/>
<path d="M50.1155 23.6889H47.3313V26.0578H50.1155V23.6889Z" fill="black"/>
<path d="M52.8997 23.6889H50.1155V26.0578H52.8997V23.6889Z" fill="black"/>
<path d="M55.6839 23.6889H52.8997V26.0578H55.6839V23.6889Z" fill="black"/>
<path d="M58.4681 23.6889H55.6839V26.0578H58.4681V23.6889Z" fill="black"/>
<path d="M61.2523 23.6889H58.4681V26.0578H61.2523V23.6889Z" fill="black"/>
<path d="M64.0365 23.6889H61.2523V26.0578H64.0365V23.6889Z" fill="black"/>
<path d="M66.8207 23.6889H64.0365V26.0578H66.8207V23.6889Z" fill="black"/>
<path d="M2.78419 26.0578H0V28.4267H2.78419V26.0578Z" fill="black"/>
<path d="M13.921 26.0578H11.1368V28.4267H13.921V26.0578Z" fill="black"/>
<path d="M16.7052 26.0578H13.921V28.4267H16.7052V26.0578Z" fill="black"/>
<path d="M22.2736 26.0578H19.4894V28.4267H22.2736V26.0578Z" fill="black"/>
<path d="M27.8419 26.0578H25.0577V28.4267H27.8419V26.0578Z" fill="black"/>
<path d="M30.6261 26.0578H27.8419V28.4267H30.6261V26.0578Z" fill="black"/>
<path d="M41.7629 26.0578H38.9787V28.4267H41.7629V26.0578Z" fill="black"/>
<path d="M44.5471 26.0578H41.7629V28.4267H44.5471V26.0578Z" fill="black"/>
<path d="M58.4681 26.0578H55.6839V28.4267H58.4681V26.0578Z" fill="black"/>
<path d="M64.0365 26.0578H61.2523V28.4267H64.0365V26.0578Z" fill="black"/>
<path d="M66.8207 26.0578H64.0365V28.4267H66.8207V26.0578Z" fill="black"/>
<path d="M2.78419 28.4267H0V30.7956H2.78419V28.4267Z" fill="black"/>
<path d="M11.1368 28.4267H8.35258V30.7956H11.1368V28.4267Z" fill="black"/>
<path d="M13.921 28.4267H11.1368V30.7956H13.921V28.4267Z" fill="black"/>
<path d="M16.7052 28.4267H13.921V30.7956H16.7052V28.4267Z" fill="black"/>
<path d="M19.4894 28.4267H16.7052V30.7956H19.4894V28.4267Z" fill="black"/>
<path d="M22.2736 28.4267H19.4894V30.7956H22.2736V28.4267Z" fill="black"/>
<path d="M25.0577 28.4267H22.2736V30.7956H25.0577V28.4267Z" fill="black"/>
<path d="M30.6261 28.4267H27.8419V30.7956H30.6261V28.4267Z" fill="black"/>
<path d="M33.4103 28.4267H30.6261V30.7956H33.4103V28.4267Z" fill="black"/>
<path d="M38.9787 28.4267H36.1945V30.7956H38.9787V28.4267Z" fill="black"/>
<path d="M41.7629 28.4267H38.9787V30.7956H41.7629V28.4267Z" fill="black"/>
<path d="M47.3313 28.4267H44.5471V30.7956H47.3313V28.4267Z" fill="black"/>
<path d="M55.6839 28.4267H52.8997V30.7956H55.6839V28.4267Z" fill="black"/>
<path d="M61.2523 28.4267H58.4681V30.7956H61.2523V28.4267Z" fill="black"/>
<path d="M64.0365 28.4267H61.2523V30.7956H64.0365V28.4267Z" fill="black"/>
<path d="M69.6049 28.4267H66.8207V30.7956H69.6049V28.4267Z" fill="black"/>
<path d="M2.78419 30.7956H0V33.1644H2.78419V30.7956Z" fill="black"/>
<path d="M5.56839 30.7956H2.78419V33.1644H5.56839V30.7956Z" fill="black"/>
<path d="M22.2736 30.7956H19.4894V33.1644H22.2736V30.7956Z" fill="black"/>
<path d="M25.0577 30.7956H22.2736V33.1644H25.0577V30.7956Z" fill="black"/>
<path d="M27.8419 30.7956H25.0577V33.1644H27.8419V30.7956Z" fill="black"/>
<path d="M36.1945 30.7956H33.4103V33.1644H36.1945V30.7956Z" fill="black"/>
<path d="M41.7629 30.7956H38.9787V33.1644H41.7629V30.7956Z" fill="black"/>
<path d="M44.5471 30.7956H41.7629V33.1644H44.5471V30.7956Z" fill="black"/>
<path d="M47.3313 30.7956H44.5471V33.1644H47.3313V30.7956Z" fill="black"/>
<path d="M50.1155 30.7956H47.3313V33.1644H50.1155V30.7956Z" fill="black"/>
<path d="M58.4681 30.7956H55.6839V33.1644H58.4681V30.7956Z" fill="black"/>
<path d="M64.0365 30.7956H61.2523V33.1644H64.0365V30.7956Z" fill="black"/>
<path d="M66.8207 30.7956H64.0365V33.1644H66.8207V30.7956Z" fill="black"/>
<path d="M69.6049 30.7956H66.8207V33.1644H69.6049V30.7956Z" fill="black"/>
<path d="M2.78419 33.1644H0V35.5333H2.78419V33.1644Z" fill="black"/>
<path d="M5.56839 33.1644H2.78419V35.5333H5.56839V33.1644Z" fill="black"/>
<path d="M8.35258 33.1644H5.56839V35.5333H8.35258V33.1644Z" fill="black"/>
<path d="M19.4894 33.1644H16.7052V35.5333H19.4894V33.1644Z" fill="black"/>
<path d="M27.8419 33.1644H25.0577V35.5333H27.8419V33.1644Z" fill="black"/>
<path d="M33.4103 33.1644H30.6261V35.5333H33.4103V33.1644Z" fill="black"/>
<path d="M36.1945 33.1644H33.4103V35.5333H36.1945V33.1644Z" fill="black"/>
<path d="M41.7629 33.1644H38.9787V35.5333H41.7629V33.1644Z" fill="black"/>
<path d="M50.1155 33.1644H47.3313V35.5333H50.1155V33.1644Z" fill="black"/>
<path d="M55.6839 33.1644H52.8997V35.5333H55.6839V33.1644Z" fill="black"/>
<path d="M58.4681 33.1644H55.6839V35.5333H58.4681V33.1644Z" fill="black"/>
<path d="M64.0365 33.1644H61.2523V35.5333H64.0365V33.1644Z" fill="black"/>
<path d="M5.56839 35.5333H2.78419V37.9022H5.56839V35.5333Z" fill="black"/>
<path d="M22.2736 35.5333L19.4894 35.5333V37.9022H22.2736V35.5333Z" fill="black"/>
<path d="M36.1945 35.5333H33.4103V37.9022H36.1945V35.5333Z" fill="black"/>
<path d="M41.7629 35.5333H38.9787V37.9022H41.7629V35.5333Z" fill="black"/>
<path d="M44.5471 35.5333L41.7629 35.5333V37.9022H44.5471V35.5333Z" fill="black"/>
<path d="M52.8997 35.5333H50.1155V37.9022H52.8997V35.5333Z" fill="black"/>
<path d="M58.4681 35.5333H55.6839V37.9022H58.4681V35.5333Z" fill="black"/>
<path d="M66.8207 35.5333L64.0365 35.5333V37.9022H66.8207V35.5333Z" fill="black"/>
<path d="M2.78419 37.9022H0V40.2711H2.78419V37.9022Z" fill="black"/>
<path d="M16.7052 37.9022H13.921V40.2711H16.7052V37.9022Z" fill="black"/>
<path d="M19.4894 37.9022H16.7052V40.2711H19.4894V37.9022Z" fill="black"/>
<path d="M22.2736 37.9022H19.4894V40.2711H22.2736V37.9022Z" fill="black"/>
<path d="M27.8419 37.9022H25.0577V40.2711H27.8419V37.9022Z" fill="black"/>
<path d="M30.6261 37.9022H27.8419V40.2711H30.6261V37.9022Z" fill="black"/>
<path d="M36.1945 37.9022H33.4103V40.2711H36.1945V37.9022Z" fill="black"/>
<path d="M44.5471 37.9022H41.7629L41.7629 40.2711H44.5471V37.9022Z" fill="black"/>
<path d="M47.3313 37.9022H44.5471V40.2711H47.3313V37.9022Z" fill="black"/>
<path d="M50.1155 37.9022H47.3313V40.2711H50.1155V37.9022Z" fill="black"/>
<path d="M52.8997 37.9022H50.1155V40.2711H52.8997V37.9022Z" fill="black"/>
<path d="M55.6839 37.9022H52.8997V40.2711H55.6839V37.9022Z" fill="black"/>
<path d="M58.4681 37.9022H55.6839V40.2711H58.4681V37.9022Z" fill="black"/>
<path d="M61.2523 37.9022H58.4681V40.2711H61.2523V37.9022Z" fill="black"/>
<path d="M66.8207 37.9022H64.0365V40.2711H66.8207V37.9022Z" fill="black"/>
<path d="M25.0577 40.2711H22.2736V42.64H25.0577V40.2711Z" fill="black"/>
<path d="M30.6261 40.2711H27.8419V42.64H30.6261V40.2711Z" fill="black"/>
<path d="M36.1945 40.2711H33.4103V42.64H36.1945V40.2711Z" fill="black"/>
<path d="M44.5471 40.2711H41.7629V42.64H44.5471V40.2711Z" fill="black"/>
<path d="M47.3313 40.2711H44.5471V42.64H47.3313V40.2711Z" fill="black"/>
<path d="M58.4681 40.2711H55.6839V42.64H58.4681V40.2711Z" fill="black"/>
<path d="M61.2523 40.2711H58.4681V42.64H61.2523V40.2711Z" fill="black"/>
<path d="M64.0365 40.2711H61.2523V42.64H64.0365V40.2711Z" fill="black"/>
<path d="M2.78419 42.64H0V45.0089H2.78419V42.64Z" fill="black"/>
<path d="M5.56839 42.64H2.78419V45.0089H5.56839V42.64Z" fill="black"/>
<path d="M8.35258 42.64H5.56839V45.0089H8.35258V42.64Z" fill="black"/>
<path d="M11.1368 42.64H8.35258V45.0089H11.1368V42.64Z" fill="black"/>
<path d="M13.921 42.64H11.1368V45.0089H13.921V42.64Z" fill="black"/>
<path d="M16.7052 42.64H13.921V45.0089H16.7052V42.64Z" fill="black"/>
<path d="M19.4894 42.64H16.7052V45.0089H19.4894V42.64Z" fill="black"/>
<path d="M25.0577 42.64H22.2736V45.0089H25.0577V42.64Z" fill="black"/>
<path d="M36.1945 42.64H33.4103V45.0089H36.1945V42.64Z" fill="black"/>
<path d="M44.5471 42.64H41.7629V45.0089H44.5471V42.64Z" fill="black"/>
<path d="M47.3313 42.64H44.5471V45.0089H47.3313V42.64Z" fill="black"/>
<path d="M52.8997 42.64H50.1155V45.0089H52.8997V42.64Z" fill="black"/>
<path d="M58.4681 42.64H55.6839V45.0089H58.4681V42.64Z" fill="black"/>
<path d="M61.2523 42.64H58.4681V45.0089H61.2523V42.64Z" fill="black"/>
<path d="M64.0365 42.64H61.2523V45.0089H64.0365V42.64Z" fill="black"/>
<path d="M69.6049 42.64H66.8207V45.0089H69.6049V42.64Z" fill="black"/>
<path d="M2.78419 45.0089H0V47.3778H2.78419V45.0089Z" fill="black"/>
<path d="M19.4894 45.0089H16.7052L16.7052 47.3778H19.4894V45.0089Z" fill="black"/>
<path d="M25.0577 45.0089H22.2736V47.3778H25.0577V45.0089Z" fill="black"/>
<path d="M30.6261 45.0089H27.8419V47.3778H30.6261V45.0089Z" fill="black"/>
<path d="M41.7629 45.0089H38.9787V47.3778H41.7629L41.7629 45.0089Z" fill="black"/>
<path d="M47.3313 45.0089H44.5471V47.3778H47.3313V45.0089Z" fill="black"/>
<path d="M58.4681 45.0089H55.6839V47.3778H58.4681V45.0089Z" fill="black"/>
<path d="M64.0365 45.0089H61.2523V47.3778H64.0365V45.0089Z" fill="black"/>
<path d="M2.78419 47.3778H0V49.7467H2.78419V47.3778Z" fill="black"/>
<path d="M8.35258 47.3778H5.56839V49.7467H8.35258V47.3778Z" fill="black"/>
<path d="M11.1368 47.3778H8.35258V49.7467H11.1368V47.3778Z" fill="black"/>
<path d="M13.921 47.3778H11.1368V49.7467H13.921V47.3778Z" fill="black"/>
<path d="M19.4894 47.3778H16.7052V49.7467H19.4894V47.3778Z" fill="black"/>
<path d="M25.0577 47.3778H22.2736V49.7467H25.0577V47.3778Z" fill="black"/>
<path d="M27.8419 47.3778H25.0577V49.7467H27.8419V47.3778Z" fill="black"/>
<path d="M30.6261 47.3778H27.8419V49.7467H30.6261V47.3778Z" fill="black"/>
<path d="M38.9787 47.3778H36.1945V49.7467H38.9787V47.3778Z" fill="black"/>
<path d="M41.7629 47.3778H38.9787V49.7467H41.7629V47.3778Z" fill="black"/>
<path d="M47.3313 47.3778H44.5471V49.7467H47.3313V47.3778Z" fill="black"/>
<path d="M50.1155 47.3778H47.3313V49.7467H50.1155V47.3778Z" fill="black"/>
<path d="M52.8997 47.3778H50.1155V49.7467H52.8997V47.3778Z" fill="black"/>
<path d="M55.6839 47.3778H52.8997V49.7467H55.6839V47.3778Z" fill="black"/>
<path d="M58.4681 47.3778H55.6839V49.7467H58.4681V47.3778Z" fill="black"/>
<path d="M69.6049 47.3778H66.8207V49.7467H69.6049V47.3778Z" fill="black"/>
<path d="M2.78419 49.7467H0V52.1156H2.78419V49.7467Z" fill="black"/>
<path d="M8.35258 49.7467H5.56839V52.1156H8.35258V49.7467Z" fill="black"/>
<path d="M11.1368 49.7467H8.35258V52.1156H11.1368V49.7467Z" fill="black"/>
<path d="M13.921 49.7467H11.1368V52.1156H13.921V49.7467Z" fill="black"/>
<path d="M19.4894 49.7467H16.7052V52.1156H19.4894V49.7467Z" fill="black"/>
<path d="M25.0577 49.7467H22.2736V52.1156H25.0577V49.7467Z" fill="black"/>
<path d="M36.1945 49.7467H33.4103V52.1156H36.1945V49.7467Z" fill="black"/>
<path d="M47.3313 49.7467H44.5471V52.1156H47.3313V49.7467Z" fill="black"/>
<path d="M50.1155 49.7467H47.3313V52.1156H50.1155V49.7467Z" fill="black"/>
<path d="M61.2523 49.7467H58.4681V52.1156H61.2523V49.7467Z" fill="black"/>
<path d="M2.78419 52.1156H0V54.4844H2.78419V52.1156Z" fill="black"/>
<path d="M8.35258 52.1156H5.56839V54.4844H8.35258V52.1156Z" fill="black"/>
<path d="M11.1368 52.1156H8.35258V54.4844H11.1368V52.1156Z" fill="black"/>
<path d="M13.921 52.1156H11.1368V54.4844H13.921V52.1156Z" fill="black"/>
<path d="M19.4894 52.1156H16.7052V54.4844H19.4894V52.1156Z" fill="black"/>
<path d="M33.4103 52.1156H30.6261V54.4844H33.4103V52.1156Z" fill="black"/>
<path d="M36.1945 52.1156H33.4103V54.4844H36.1945V52.1156Z" fill="black"/>
<path d="M41.7629 52.1156H38.9787V54.4844H41.7629V52.1156Z" fill="black"/>
<path d="M44.5471 52.1156H41.7629V54.4844H44.5471V52.1156Z" fill="black"/>
<path d="M47.3313 52.1156H44.5471V54.4844H47.3313V52.1156Z" fill="black"/>
<path d="M55.6839 52.1156H52.8997V54.4844H55.6839V52.1156Z" fill="black"/>
<path d="M58.4681 52.1156H55.6839V54.4844H58.4681V52.1156Z" fill="black"/>
<path d="M64.0365 52.1156H61.2523V54.4844H64.0365V52.1156Z" fill="black"/>
<path d="M66.8207 52.1156H64.0365V54.4844H66.8207V52.1156Z" fill="black"/>
<path d="M69.6049 52.1156H66.8207V54.4844H69.6049V52.1156Z" fill="black"/>
<path d="M2.78419 54.4844H0V56.8533H2.78419V54.4844Z" fill="black"/>
<path d="M19.4894 54.4844H16.7052V56.8533H19.4894V54.4844Z" fill="black"/>
<path d="M27.8419 54.4844H25.0577V56.8533H27.8419V54.4844Z" fill="black"/>
<path d="M30.6261 54.4844H27.8419V56.8533H30.6261V54.4844Z" fill="black"/>
<path d="M33.4103 54.4844H30.6261V56.8533H33.4103V54.4844Z" fill="black"/>
<path d="M38.9787 54.4844H36.1945V56.8533H38.9787V54.4844Z" fill="black"/>
<path d="M41.7629 54.4844H38.9787V56.8533H41.7629V54.4844Z" fill="black"/>
<path d="M50.1155 54.4844H47.3313V56.8533H50.1155V54.4844Z" fill="black"/>
<path d="M52.8997 54.4844H50.1155V56.8533H52.8997V54.4844Z" fill="black"/>
<path d="M55.6839 54.4844H52.8997V56.8533H55.6839V54.4844Z" fill="black"/>
<path d="M58.4681 54.4844H55.6839V56.8533H58.4681V54.4844Z" fill="black"/>
<path d="M64.0365 54.4844H61.2523V56.8533H64.0365V54.4844Z" fill="black"/>
<path d="M66.8207 54.4844H64.0365V56.8533H66.8207V54.4844Z" fill="black"/>
<path d="M69.6049 54.4844H66.8207V56.8533H69.6049V54.4844Z" fill="black"/>
<path d="M2.78419 56.8533H0V59.2222H2.78419V56.8533Z" fill="black"/>
<path d="M5.56839 56.8533H2.78419V59.2222H5.56839V56.8533Z" fill="black"/>
<path d="M8.35258 56.8533H5.56839V59.2222H8.35258V56.8533Z" fill="black"/>
<path d="M11.1368 56.8533H8.35258V59.2222H11.1368V56.8533Z" fill="black"/>
<path d="M13.921 56.8533H11.1368V59.2222H13.921V56.8533Z" fill="black"/>
<path d="M16.7052 56.8533H13.921V59.2222H16.7052L16.7052 56.8533Z" fill="black"/>
<path d="M19.4894 56.8533H16.7052L16.7052 59.2222H19.4894V56.8533Z" fill="black"/>
<path d="M25.0577 56.8533H22.2736V59.2222H25.0577V56.8533Z" fill="black"/>
<path d="M33.4103 56.8533H30.6261V59.2222H33.4103V56.8533Z" fill="black"/>
<path d="M36.1945 56.8533H33.4103V59.2222H36.1945V56.8533Z" fill="black"/>
<path d="M47.3313 56.8533H44.5471V59.2222H47.3313V56.8533Z" fill="black"/>
<path d="M61.2523 56.8533H58.4681V59.2222H61.2523V56.8533Z" fill="black"/>
<path d="M69.6049 56.8533H66.8207V59.2222H69.6049V56.8533Z" fill="black"/>
<mask id="mask0_9216_104831" style="mask-type:alpha" maskUnits="userSpaceOnUse" x="0" y="0" width="70" height="60">
<path d="M2.78419 0H0V2.36889H2.78419V0Z" fill="black"/>
<path d="M5.56839 0H2.78419V2.36889H5.56839V0Z" fill="black"/>
<path d="M8.35258 0H5.56839V2.36889H8.35258V0Z" fill="black"/>
<path d="M11.1368 0H8.35258V2.36889H11.1368V0Z" fill="black"/>
<path d="M13.921 0H11.1368V2.36889H13.921V0Z" fill="black"/>
<path d="M16.7052 0H13.921V2.36889H16.7052V0Z" fill="black"/>
<path d="M19.4894 0H16.7052V2.36889H19.4894V0Z" fill="black"/>
<path d="M25.0577 0H22.2736V2.36889H25.0577V0Z" fill="black"/>
<path d="M27.8419 0H25.0577V2.36889H27.8419V0Z" fill="black"/>
<path d="M38.9787 0H36.1945V2.36889H38.9787V0Z" fill="black"/>
<path d="M47.3313 0H44.5471V2.36889H47.3313V0Z" fill="black"/>
<path d="M52.8997 0H50.1155V2.36889H52.8997V0Z" fill="black"/>
<path d="M55.6839 0H52.8997V2.36889H55.6839V0Z" fill="black"/>
<path d="M58.4681 0H55.6839V2.36889H58.4681V0Z" fill="black"/>
<path d="M61.2523 0H58.4681V2.36889H61.2523V0Z" fill="black"/>
<path d="M64.0365 0H61.2523V2.36889H64.0365V0Z" fill="black"/>
<path d="M66.8207 0H64.0365V2.36889H66.8207V0Z" fill="black"/>
<path d="M69.6049 0H66.8207V2.36889H69.6049V0Z" fill="black"/>
<path d="M2.78419 2.36889H0V4.73778H2.78419V2.36889Z" fill="black"/>
<path d="M19.4894 2.36889H16.7052L16.7052 4.73778H19.4894V2.36889Z" fill="black"/>
<path d="M36.1945 2.36889H33.4103V4.73778H36.1945V2.36889Z" fill="black"/>
<path d="M38.9787 2.36889H36.1945V4.73778H38.9787V2.36889Z" fill="black"/>
<path d="M47.3313 2.36889H44.5471V4.73778H47.3313V2.36889Z" fill="black"/>
<path d="M52.8997 2.36889H50.1155V4.73778H52.8997V2.36889Z" fill="black"/>
<path d="M69.6049 2.36889H66.8207V4.73778H69.6049V2.36889Z" fill="black"/>
<path d="M2.78419 4.73778H0V7.10667H2.78419V4.73778Z" fill="black"/>
<path d="M8.35258 4.73778H5.56839V7.10667H8.35258V4.73778Z" fill="black"/>
<path d="M11.1368 4.73778H8.35258V7.10667H11.1368V4.73778Z" fill="black"/>
<path d="M13.921 4.73778H11.1368V7.10667H13.921V4.73778Z" fill="black"/>
<path d="M19.4894 4.73778H16.7052V7.10667H19.4894V4.73778Z" fill="black"/>
<path d="M27.8419 4.73778H25.0577V7.10667H27.8419V4.73778Z" fill="black"/>
<path d="M30.6261 4.73778H27.8419V7.10667H30.6261V4.73778Z" fill="black"/>
<path d="M33.4103 4.73778H30.6261V7.10667H33.4103V4.73778Z" fill="black"/>
<path d="M36.1945 4.73778H33.4103V7.10667H36.1945V4.73778Z" fill="black"/>
<path d="M38.9787 4.73778H36.1945V7.10667H38.9787V4.73778Z" fill="black"/>
<path d="M47.3313 4.73778H44.5471V7.10667H47.3313V4.73778Z" fill="black"/>
<path d="M52.8997 4.73778H50.1155V7.10667H52.8997V4.73778Z" fill="black"/>
<path d="M58.4681 4.73778H55.6839V7.10667H58.4681V4.73778Z" fill="black"/>
<path d="M61.2523 4.73778H58.4681V7.10667H61.2523V4.73778Z" fill="black"/>
<path d="M64.0365 4.73778H61.2523V7.10667H64.0365V4.73778Z" fill="black"/>
<path d="M69.6049 4.73778H66.8207V7.10667H69.6049V4.73778Z" fill="black"/>
<path d="M2.78419 7.10667H0V9.47556H2.78419V7.10667Z" fill="black"/>
<path d="M8.35258 7.10667H5.56839V9.47556H8.35258V7.10667Z" fill="black"/>
<path d="M11.1368 7.10667H8.35258V9.47556H11.1368V7.10667Z" fill="black"/>
<path d="M13.921 7.10667H11.1368V9.47556H13.921V7.10667Z" fill="black"/>
<path d="M19.4894 7.10667H16.7052V9.47556H19.4894V7.10667Z" fill="black"/>
<path d="M27.8419 7.10667H25.0577V9.47556H27.8419V7.10667Z" fill="black"/>
<path d="M30.6261 7.10667H27.8419V9.47556H30.6261V7.10667Z" fill="black"/>
<path d="M38.9787 7.10667H36.1945V9.47556H38.9787V7.10667Z" fill="black"/>
<path d="M52.8997 7.10667H50.1155V9.47556H52.8997V7.10667Z" fill="black"/>
<path d="M58.4681 7.10667H55.6839V9.47556H58.4681V7.10667Z" fill="black"/>
<path d="M61.2523 7.10667H58.4681V9.47556H61.2523V7.10667Z" fill="black"/>
<path d="M64.0365 7.10667H61.2523V9.47556H64.0365V7.10667Z" fill="black"/>
<path d="M69.6049 7.10667H66.8207V9.47556H69.6049V7.10667Z" fill="black"/>
<path d="M2.78419 9.47556H0V11.8444H2.78419V9.47556Z" fill="black"/>
<path d="M8.35258 9.47556H5.56839V11.8444H8.35258V9.47556Z" fill="black"/>
<path d="M11.1368 9.47556H8.35258V11.8444H11.1368V9.47556Z" fill="black"/>
<path d="M13.921 9.47556H11.1368V11.8444H13.921V9.47556Z" fill="black"/>
<path d="M19.4894 9.47556H16.7052V11.8444H19.4894V9.47556Z" fill="black"/>
<path d="M25.0577 9.47556H22.2736V11.8444H25.0577V9.47556Z" fill="black"/>
<path d="M30.6261 9.47556H27.8419V11.8444H30.6261V9.47556Z" fill="black"/>
<path d="M33.4103 9.47556H30.6261V11.8444H33.4103V9.47556Z" fill="black"/>
<path d="M36.1945 9.47556H33.4103V11.8444H36.1945V9.47556Z" fill="black"/>
<path d="M41.7629 9.47556H38.9787V11.8444H41.7629V9.47556Z" fill="black"/>
<path d="M52.8997 9.47556H50.1155V11.8444H52.8997V9.47556Z" fill="black"/>
<path d="M58.4681 9.47556H55.6839V11.8444H58.4681V9.47556Z" fill="black"/>
<path d="M61.2523 9.47556H58.4681V11.8444H61.2523V9.47556Z" fill="black"/>
<path d="M64.0365 9.47556H61.2523V11.8444H64.0365V9.47556Z" fill="black"/>
<path d="M69.6049 9.47556H66.8207V11.8444H69.6049V9.47556Z" fill="black"/>
<path d="M2.78419 11.8444H0V14.2133H2.78419V11.8444Z" fill="black"/>
<path d="M19.4894 11.8444H16.7052V14.2133H19.4894V11.8444Z" fill="black"/>
<path d="M41.7629 11.8444H38.9787V14.2133H41.7629V11.8444Z" fill="black"/>
<path d="M52.8997 11.8444H50.1155V14.2133H52.8997V11.8444Z" fill="black"/>
<path d="M69.6049 11.8444H66.8207V14.2133H69.6049V11.8444Z" fill="black"/>
<path d="M2.78419 14.2133H0V16.5822H2.78419V14.2133Z" fill="black"/>
<path d="M5.56839 14.2133L2.78419 14.2133V16.5822H5.56839V14.2133Z" fill="black"/>
<path d="M8.35258 14.2133H5.56839V16.5822H8.35258V14.2133Z" fill="black"/>
<path d="M11.1368 14.2133H8.35258V16.5822H11.1368V14.2133Z" fill="black"/>
<path d="M13.921 14.2133H11.1368V16.5822H13.921V14.2133Z" fill="black"/>
<path d="M16.7052 14.2133L13.921 14.2133V16.5822H16.7052L16.7052 14.2133Z" fill="black"/>
<path d="M19.4894 14.2133H16.7052L16.7052 16.5822H19.4894V14.2133Z" fill="black"/>
<path d="M25.0577 14.2133H22.2736V16.5822H25.0577V14.2133Z" fill="black"/>
<path d="M30.6261 14.2133H27.8419V16.5822H30.6261V14.2133Z" fill="black"/>
<path d="M36.1945 14.2133H33.4103V16.5822H36.1945V14.2133Z" fill="black"/>
<path d="M41.7629 14.2133H38.9787V16.5822H41.7629V14.2133Z" fill="black"/>
<path d="M47.3313 14.2133H44.5471V16.5822H47.3313V14.2133Z" fill="black"/>
<path d="M52.8997 14.2133H50.1155V16.5822H52.8997V14.2133Z" fill="black"/>
<path d="M55.6839 14.2133L52.8997 14.2133V16.5822H55.6839V14.2133Z" fill="black"/>
<path d="M58.4681 14.2133H55.6839V16.5822H58.4681V14.2133Z" fill="black"/>
<path d="M61.2523 14.2133H58.4681V16.5822H61.2523V14.2133Z" fill="black"/>
<path d="M64.0365 14.2133H61.2523V16.5822H64.0365V14.2133Z" fill="black"/>
<path d="M66.8207 14.2133L64.0365 14.2133V16.5822H66.8207V14.2133Z" fill="black"/>
<path d="M69.6049 14.2133H66.8207V16.5822H69.6049V14.2133Z" fill="black"/>
<path d="M25.0577 16.5822H22.2736V18.9511H25.0577V16.5822Z" fill="black"/>
<path d="M30.6261 16.5822H27.8419V18.9511H30.6261V16.5822Z" fill="black"/>
<path d="M36.1945 16.5822H33.4103V18.9511H36.1945V16.5822Z" fill="black"/>
<path d="M38.9787 16.5822H36.1945V18.9511H38.9787V16.5822Z" fill="black"/>
<path d="M44.5471 16.5822H41.7629L41.7629 18.9511H44.5471V16.5822Z" fill="black"/>
<path d="M47.3313 16.5822H44.5471V18.9511H47.3313V16.5822Z" fill="black"/>
<path d="M2.78419 18.9511H0V21.32H2.78419V18.9511Z" fill="black"/>
<path d="M11.1368 18.9511H8.35258V21.32H11.1368V18.9511Z" fill="black"/>
<path d="M13.921 18.9511H11.1368V21.32H13.921V18.9511Z" fill="black"/>
<path d="M16.7052 18.9511H13.921V21.32H16.7052V18.9511Z" fill="black"/>
<path d="M19.4894 18.9511H16.7052V21.32H19.4894V18.9511Z" fill="black"/>
<path d="M22.2736 18.9511H19.4894V21.32H22.2736V18.9511Z" fill="black"/>
<path d="M25.0577 18.9511H22.2736V21.32H25.0577V18.9511Z" fill="black"/>
<path d="M27.8419 18.9511H25.0577V21.32H27.8419V18.9511Z" fill="black"/>
<path d="M38.9787 18.9511H36.1945V21.32H38.9787V18.9511Z" fill="black"/>
<path d="M47.3313 18.9511H44.5471V21.32H47.3313V18.9511Z" fill="black"/>
<path d="M50.1155 18.9511H47.3313V21.32H50.1155V18.9511Z" fill="black"/>
<path d="M52.8997 18.9511H50.1155V21.32H52.8997V18.9511Z" fill="black"/>
<path d="M58.4681 18.9511H55.6839V21.32H58.4681V18.9511Z" fill="black"/>
<path d="M69.6049 18.9511H66.8207V21.32H69.6049V18.9511Z" fill="black"/>
<path d="M5.56839 21.32H2.78419V23.6889H5.56839V21.32Z" fill="black"/>
<path d="M11.1368 21.32H8.35258V23.6889H11.1368V21.32Z" fill="black"/>
<path d="M13.921 21.32H11.1368V23.6889H13.921V21.32Z" fill="black"/>
<path d="M22.2736 21.32H19.4894V23.6889H22.2736V21.32Z" fill="black"/>
<path d="M25.0577 21.32H22.2736V23.6889H25.0577V21.32Z" fill="black"/>
<path d="M36.1945 21.32H33.4103V23.6889H36.1945V21.32Z" fill="black"/>
<path d="M44.5471 21.32H41.7629V23.6889H44.5471V21.32Z" fill="black"/>
<path d="M50.1155 21.32H47.3313V23.6889H50.1155V21.32Z" fill="black"/>
<path d="M52.8997 21.32H50.1155V23.6889H52.8997V21.32Z" fill="black"/>
<path d="M58.4681 21.32H55.6839V23.6889H58.4681V21.32Z" fill="black"/>
<path d="M61.2523 21.32H58.4681V23.6889H61.2523V21.32Z" fill="black"/>
<path d="M64.0365 21.32H61.2523V23.6889H64.0365V21.32Z" fill="black"/>
<path d="M66.8207 21.32H64.0365V23.6889H66.8207V21.32Z" fill="black"/>
<path d="M69.6049 21.32H66.8207V23.6889H69.6049V21.32Z" fill="black"/>
<path d="M2.78419 23.6889H0V26.0578H2.78419V23.6889Z" fill="black"/>
<path d="M5.56839 23.6889H2.78419V26.0578H5.56839V23.6889Z" fill="black"/>
<path d="M11.1368 23.6889H8.35258V26.0578H11.1368V23.6889Z" fill="black"/>
<path d="M13.921 23.6889H11.1368V26.0578H13.921V23.6889Z" fill="black"/>
<path d="M16.7052 23.6889H13.921V26.0578H16.7052V23.6889Z" fill="black"/>
<path d="M19.4894 23.6889H16.7052V26.0578H19.4894V23.6889Z" fill="black"/>
<path d="M22.2736 23.6889H19.4894V26.0578H22.2736V23.6889Z" fill="black"/>
<path d="M27.8419 23.6889H25.0577V26.0578H27.8419V23.6889Z" fill="black"/>
<path d="M33.4103 23.6889H30.6261V26.0578H33.4103V23.6889Z" fill="black"/>
<path d="M36.1945 23.6889H33.4103V26.0578H36.1945V23.6889Z" fill="black"/>
<path d="M41.7629 23.6889H38.9787V26.0578H41.7629L41.7629 23.6889Z" fill="black"/>
<path d="M47.3313 23.6889H44.5471V26.0578H47.3313V23.6889Z" fill="black"/>
<path d="M50.1155 23.6889H47.3313V26.0578H50.1155V23.6889Z" fill="black"/>
<path d="M52.8997 23.6889H50.1155V26.0578H52.8997V23.6889Z" fill="black"/>
<path d="M55.6839 23.6889H52.8997V26.0578H55.6839V23.6889Z" fill="black"/>
<path d="M58.4681 23.6889H55.6839V26.0578H58.4681V23.6889Z" fill="black"/>
<path d="M61.2523 23.6889H58.4681V26.0578H61.2523V23.6889Z" fill="black"/>
<path d="M64.0365 23.6889H61.2523V26.0578H64.0365V23.6889Z" fill="black"/>
<path d="M66.8207 23.6889H64.0365V26.0578H66.8207V23.6889Z" fill="black"/>
<path d="M2.78419 26.0578H0V28.4267H2.78419V26.0578Z" fill="black"/>
<path d="M13.921 26.0578H11.1368V28.4267H13.921V26.0578Z" fill="black"/>
<path d="M16.7052 26.0578H13.921V28.4267H16.7052V26.0578Z" fill="black"/>
<path d="M22.2736 26.0578H19.4894V28.4267H22.2736V26.0578Z" fill="black"/>
<path d="M27.8419 26.0578H25.0577V28.4267H27.8419V26.0578Z" fill="black"/>
<path d="M30.6261 26.0578H27.8419V28.4267H30.6261V26.0578Z" fill="black"/>
<path d="M41.7629 26.0578H38.9787V28.4267H41.7629V26.0578Z" fill="black"/>
<path d="M44.5471 26.0578H41.7629V28.4267H44.5471V26.0578Z" fill="black"/>
<path d="M58.4681 26.0578H55.6839V28.4267H58.4681V26.0578Z" fill="black"/>
<path d="M64.0365 26.0578H61.2523V28.4267H64.0365V26.0578Z" fill="black"/>
<path d="M66.8207 26.0578H64.0365V28.4267H66.8207V26.0578Z" fill="black"/>
<path d="M2.78419 28.4267H0V30.7956H2.78419V28.4267Z" fill="black"/>
<path d="M11.1368 28.4267H8.35258V30.7956H11.1368V28.4267Z" fill="black"/>
<path d="M13.921 28.4267H11.1368V30.7956H13.921V28.4267Z" fill="black"/>
<path d="M16.7052 28.4267H13.921V30.7956H16.7052V28.4267Z" fill="black"/>
<path d="M19.4894 28.4267H16.7052V30.7956H19.4894V28.4267Z" fill="black"/>
<path d="M22.2736 28.4267H19.4894V30.7956H22.2736V28.4267Z" fill="black"/>
<path d="M25.0577 28.4267H22.2736V30.7956H25.0577V28.4267Z" fill="black"/>
<path d="M30.6261 28.4267H27.8419V30.7956H30.6261V28.4267Z" fill="black"/>
<path d="M33.4103 28.4267H30.6261V30.7956H33.4103V28.4267Z" fill="black"/>
<path d="M38.9787 28.4267H36.1945V30.7956H38.9787V28.4267Z" fill="black"/>
<path d="M41.7629 28.4267H38.9787V30.7956H41.7629V28.4267Z" fill="black"/>
<path d="M47.3313 28.4267H44.5471V30.7956H47.3313V28.4267Z" fill="black"/>
<path d="M55.6839 28.4267H52.8997V30.7956H55.6839V28.4267Z" fill="black"/>
<path d="M61.2523 28.4267H58.4681V30.7956H61.2523V28.4267Z" fill="black"/>
<path d="M64.0365 28.4267H61.2523V30.7956H64.0365V28.4267Z" fill="black"/>
<path d="M69.6049 28.4267H66.8207V30.7956H69.6049V28.4267Z" fill="black"/>
<path d="M2.78419 30.7956H0V33.1644H2.78419V30.7956Z" fill="black"/>
<path d="M5.56839 30.7956H2.78419V33.1644H5.56839V30.7956Z" fill="black"/>
<path d="M22.2736 30.7956H19.4894V33.1644H22.2736V30.7956Z" fill="black"/>
<path d="M25.0577 30.7956H22.2736V33.1644H25.0577V30.7956Z" fill="black"/>
<path d="M27.8419 30.7956H25.0577V33.1644H27.8419V30.7956Z" fill="black"/>
<path d="M36.1945 30.7956H33.4103V33.1644H36.1945V30.7956Z" fill="black"/>
<path d="M41.7629 30.7956H38.9787V33.1644H41.7629V30.7956Z" fill="black"/>
<path d="M44.5471 30.7956H41.7629V33.1644H44.5471V30.7956Z" fill="black"/>
<path d="M47.3313 30.7956H44.5471V33.1644H47.3313V30.7956Z" fill="black"/>
<path d="M50.1155 30.7956H47.3313V33.1644H50.1155V30.7956Z" fill="black"/>
<path d="M58.4681 30.7956H55.6839V33.1644H58.4681V30.7956Z" fill="black"/>
<path d="M64.0365 30.7956H61.2523V33.1644H64.0365V30.7956Z" fill="black"/>
<path d="M66.8207 30.7956H64.0365V33.1644H66.8207V30.7956Z" fill="black"/>
<path d="M69.6049 30.7956H66.8207V33.1644H69.6049V30.7956Z" fill="black"/>
<path d="M2.78419 33.1644H0V35.5333H2.78419V33.1644Z" fill="black"/>
<path d="M5.56839 33.1644H2.78419V35.5333H5.56839V33.1644Z" fill="black"/>
<path d="M8.35258 33.1644H5.56839V35.5333H8.35258V33.1644Z" fill="black"/>
<path d="M19.4894 33.1644H16.7052V35.5333H19.4894V33.1644Z" fill="black"/>
<path d="M27.8419 33.1644H25.0577V35.5333H27.8419V33.1644Z" fill="black"/>
<path d="M33.4103 33.1644H30.6261V35.5333H33.4103V33.1644Z" fill="black"/>
<path d="M36.1945 33.1644H33.4103V35.5333H36.1945V33.1644Z" fill="black"/>
<path d="M41.7629 33.1644H38.9787V35.5333H41.7629V33.1644Z" fill="black"/>
<path d="M50.1155 33.1644H47.3313V35.5333H50.1155V33.1644Z" fill="black"/>
<path d="M55.6839 33.1644H52.8997V35.5333H55.6839V33.1644Z" fill="black"/>
<path d="M58.4681 33.1644H55.6839V35.5333H58.4681V33.1644Z" fill="black"/>
<path d="M64.0365 33.1644H61.2523V35.5333H64.0365V33.1644Z" fill="black"/>
<path d="M5.56839 35.5333H2.78419V37.9022H5.56839V35.5333Z" fill="black"/>
<path d="M22.2736 35.5333L19.4894 35.5333V37.9022H22.2736V35.5333Z" fill="black"/>
<path d="M36.1945 35.5333H33.4103V37.9022H36.1945V35.5333Z" fill="black"/>
<path d="M41.7629 35.5333H38.9787V37.9022H41.7629V35.5333Z" fill="black"/>
<path d="M44.5471 35.5333L41.7629 35.5333V37.9022H44.5471V35.5333Z" fill="black"/>
<path d="M52.8997 35.5333H50.1155V37.9022H52.8997V35.5333Z" fill="black"/>
<path d="M58.4681 35.5333H55.6839V37.9022H58.4681V35.5333Z" fill="black"/>
<path d="M66.8207 35.5333L64.0365 35.5333V37.9022H66.8207V35.5333Z" fill="black"/>
<path d="M2.78419 37.9022H0V40.2711H2.78419V37.9022Z" fill="black"/>
<path d="M16.7052 37.9022H13.921V40.2711H16.7052V37.9022Z" fill="black"/>
<path d="M19.4894 37.9022H16.7052V40.2711H19.4894V37.9022Z" fill="black"/>
<path d="M22.2736 37.9022H19.4894V40.2711H22.2736V37.9022Z" fill="black"/>
<path d="M27.8419 37.9022H25.0577V40.2711H27.8419V37.9022Z" fill="black"/>
<path d="M30.6261 37.9022H27.8419V40.2711H30.6261V37.9022Z" fill="black"/>
<path d="M36.1945 37.9022H33.4103V40.2711H36.1945V37.9022Z" fill="black"/>
<path d="M44.5471 37.9022H41.7629L41.7629 40.2711H44.5471V37.9022Z" fill="black"/>
<path d="M47.3313 37.9022H44.5471V40.2711H47.3313V37.9022Z" fill="black"/>
<path d="M50.1155 37.9022H47.3313V40.2711H50.1155V37.9022Z" fill="black"/>
<path d="M52.8997 37.9022H50.1155V40.2711H52.8997V37.9022Z" fill="black"/>
<path d="M55.6839 37.9022H52.8997V40.2711H55.6839V37.9022Z" fill="black"/>
<path d="M58.4681 37.9022H55.6839V40.2711H58.4681V37.9022Z" fill="black"/>
<path d="M61.2523 37.9022H58.4681V40.2711H61.2523V37.9022Z" fill="black"/>
<path d="M66.8207 37.9022H64.0365V40.2711H66.8207V37.9022Z" fill="black"/>
<path d="M25.0577 40.2711H22.2736V42.64H25.0577V40.2711Z" fill="black"/>
<path d="M30.6261 40.2711H27.8419V42.64H30.6261V40.2711Z" fill="black"/>
<path d="M36.1945 40.2711H33.4103V42.64H36.1945V40.2711Z" fill="black"/>
<path d="M44.5471 40.2711H41.7629V42.64H44.5471V40.2711Z" fill="black"/>
<path d="M47.3313 40.2711H44.5471V42.64H47.3313V40.2711Z" fill="black"/>
<path d="M58.4681 40.2711H55.6839V42.64H58.4681V40.2711Z" fill="black"/>
<path d="M61.2523 40.2711H58.4681V42.64H61.2523V40.2711Z" fill="black"/>
<path d="M64.0365 40.2711H61.2523V42.64H64.0365V40.2711Z" fill="black"/>
<path d="M2.78419 42.64H0V45.0089H2.78419V42.64Z" fill="black"/>
<path d="M5.56839 42.64H2.78419V45.0089H5.56839V42.64Z" fill="black"/>
<path d="M8.35258 42.64H5.56839V45.0089H8.35258V42.64Z" fill="black"/>
<path d="M11.1368 42.64H8.35258V45.0089H11.1368V42.64Z" fill="black"/>
<path d="M13.921 42.64H11.1368V45.0089H13.921V42.64Z" fill="black"/>
<path d="M16.7052 42.64H13.921V45.0089H16.7052V42.64Z" fill="black"/>
<path d="M19.4894 42.64H16.7052V45.0089H19.4894V42.64Z" fill="black"/>
<path d="M25.0577 42.64H22.2736V45.0089H25.0577V42.64Z" fill="black"/>
<path d="M36.1945 42.64H33.4103V45.0089H36.1945V42.64Z" fill="black"/>
<path d="M44.5471 42.64H41.7629V45.0089H44.5471V42.64Z" fill="black"/>
<path d="M47.3313 42.64H44.5471V45.0089H47.3313V42.64Z" fill="black"/>
<path d="M52.8997 42.64H50.1155V45.0089H52.8997V42.64Z" fill="black"/>
<path d="M58.4681 42.64H55.6839V45.0089H58.4681V42.64Z" fill="black"/>
<path d="M61.2523 42.64H58.4681V45.0089H61.2523V42.64Z" fill="black"/>
<path d="M64.0365 42.64H61.2523V45.0089H64.0365V42.64Z" fill="black"/>
<path d="M69.6049 42.64H66.8207V45.0089H69.6049V42.64Z" fill="black"/>
<path d="M2.78419 45.0089H0V47.3778H2.78419V45.0089Z" fill="black"/>
<path d="M19.4894 45.0089H16.7052L16.7052 47.3778H19.4894V45.0089Z" fill="black"/>
<path d="M25.0577 45.0089H22.2736V47.3778H25.0577V45.0089Z" fill="black"/>
<path d="M30.6261 45.0089H27.8419V47.3778H30.6261V45.0089Z" fill="black"/>
<path d="M41.7629 45.0089H38.9787V47.3778H41.7629L41.7629 45.0089Z" fill="black"/>
<path d="M47.3313 45.0089H44.5471V47.3778H47.3313V45.0089Z" fill="black"/>
<path d="M58.4681 45.0089H55.6839V47.3778H58.4681V45.0089Z" fill="black"/>
<path d="M64.0365 45.0089H61.2523V47.3778H64.0365V45.0089Z" fill="black"/>
<path d="M2.78419 47.3778H0V49.7467H2.78419V47.3778Z" fill="black"/>
<path d="M8.35258 47.3778H5.56839V49.7467H8.35258V47.3778Z" fill="black"/>
<path d="M11.1368 47.3778H8.35258V49.7467H11.1368V47.3778Z" fill="black"/>
<path d="M13.921 47.3778H11.1368V49.7467H13.921V47.3778Z" fill="black"/>
<path d="M19.4894 47.3778H16.7052V49.7467H19.4894V47.3778Z" fill="black"/>
<path d="M25.0577 47.3778H22.2736V49.7467H25.0577V47.3778Z" fill="black"/>
<path d="M27.8419 47.3778H25.0577V49.7467H27.8419V47.3778Z" fill="black"/>
<path d="M30.6261 47.3778H27.8419V49.7467H30.6261V47.3778Z" fill="black"/>
<path d="M38.9787 47.3778H36.1945V49.7467H38.9787V47.3778Z" fill="black"/>
<path d="M41.7629 47.3778H38.9787V49.7467H41.7629V47.3778Z" fill="black"/>
<path d="M47.3313 47.3778H44.5471V49.7467H47.3313V47.3778Z" fill="black"/>
<path d="M50.1155 47.3778H47.3313V49.7467H50.1155V47.3778Z" fill="black"/>
<path d="M52.8997 47.3778H50.1155V49.7467H52.8997V47.3778Z" fill="black"/>
<path d="M55.6839 47.3778H52.8997V49.7467H55.6839V47.3778Z" fill="black"/>
<path d="M58.4681 47.3778H55.6839V49.7467H58.4681V47.3778Z" fill="black"/>
<path d="M69.6049 47.3778H66.8207V49.7467H69.6049V47.3778Z" fill="black"/>
<path d="M2.78419 49.7467H0V52.1156H2.78419V49.7467Z" fill="black"/>
<path d="M8.35258 49.7467H5.56839V52.1156H8.35258V49.7467Z" fill="black"/>
<path d="M11.1368 49.7467H8.35258V52.1156H11.1368V49.7467Z" fill="black"/>
<path d="M13.921 49.7467H11.1368V52.1156H13.921V49.7467Z" fill="black"/>
<path d="M19.4894 49.7467H16.7052V52.1156H19.4894V49.7467Z" fill="black"/>
<path d="M25.0577 49.7467H22.2736V52.1156H25.0577V49.7467Z" fill="black"/>
<path d="M36.1945 49.7467H33.4103V52.1156H36.1945V49.7467Z" fill="black"/>
<path d="M47.3313 49.7467H44.5471V52.1156H47.3313V49.7467Z" fill="black"/>
<path d="M50.1155 49.7467H47.3313V52.1156H50.1155V49.7467Z" fill="black"/>
<path d="M61.2523 49.7467H58.4681V52.1156H61.2523V49.7467Z" fill="black"/>
<path d="M2.78419 52.1156H0V54.4844H2.78419V52.1156Z" fill="black"/>
<path d="M8.35258 52.1156H5.56839V54.4844H8.35258V52.1156Z" fill="black"/>
<path d="M11.1368 52.1156H8.35258V54.4844H11.1368V52.1156Z" fill="black"/>
<path d="M13.921 52.1156H11.1368V54.4844H13.921V52.1156Z" fill="black"/>
<path d="M19.4894 52.1156H16.7052V54.4844H19.4894V52.1156Z" fill="black"/>
<path d="M33.4103 52.1156H30.6261V54.4844H33.4103V52.1156Z" fill="black"/>
<path d="M36.1945 52.1156H33.4103V54.4844H36.1945V52.1156Z" fill="black"/>
<path d="M41.7629 52.1156H38.9787V54.4844H41.7629V52.1156Z" fill="black"/>
<path d="M44.5471 52.1156H41.7629V54.4844H44.5471V52.1156Z" fill="black"/>
<path d="M47.3313 52.1156H44.5471V54.4844H47.3313V52.1156Z" fill="black"/>
<path d="M55.6839 52.1156H52.8997V54.4844H55.6839V52.1156Z" fill="black"/>
<path d="M58.4681 52.1156H55.6839V54.4844H58.4681V52.1156Z" fill="black"/>
<path d="M64.0365 52.1156H61.2523V54.4844H64.0365V52.1156Z" fill="black"/>
<path d="M66.8207 52.1156H64.0365V54.4844H66.8207V52.1156Z" fill="black"/>
<path d="M69.6049 52.1156H66.8207V54.4844H69.6049V52.1156Z" fill="black"/>
<path d="M2.78419 54.4844H0V56.8533H2.78419V54.4844Z" fill="black"/>
<path d="M19.4894 54.4844H16.7052V56.8533H19.4894V54.4844Z" fill="black"/>
<path d="M27.8419 54.4844H25.0577V56.8533H27.8419V54.4844Z" fill="black"/>
<path d="M30.6261 54.4844H27.8419V56.8533H30.6261V54.4844Z" fill="black"/>
<path d="M33.4103 54.4844H30.6261V56.8533H33.4103V54.4844Z" fill="black"/>
<path d="M38.9787 54.4844H36.1945V56.8533H38.9787V54.4844Z" fill="black"/>
<path d="M41.7629 54.4844H38.9787V56.8533H41.7629V54.4844Z" fill="black"/>
<path d="M50.1155 54.4844H47.3313V56.8533H50.1155V54.4844Z" fill="black"/>
<path d="M52.8997 54.4844H50.1155V56.8533H52.8997V54.4844Z" fill="black"/>
<path d="M55.6839 54.4844H52.8997V56.8533H55.6839V54.4844Z" fill="black"/>
<path d="M58.4681 54.4844H55.6839V56.8533H58.4681V54.4844Z" fill="black"/>
<path d="M64.0365 54.4844H61.2523V56.8533H64.0365V54.4844Z" fill="black"/>
<path d="M66.8207 54.4844H64.0365V56.8533H66.8207V54.4844Z" fill="black"/>
<path d="M69.6049 54.4844H66.8207V56.8533H69.6049V54.4844Z" fill="black"/>
<path d="M2.78419 56.8533H0V59.2222H2.78419V56.8533Z" fill="black"/>
<path d="M5.56839 56.8533H2.78419V59.2222H5.56839V56.8533Z" fill="black"/>
<path d="M8.35258 56.8533H5.56839V59.2222H8.35258V56.8533Z" fill="black"/>
<path d="M11.1368 56.8533H8.35258V59.2222H11.1368V56.8533Z" fill="black"/>
<path d="M13.921 56.8533H11.1368V59.2222H13.921V56.8533Z" fill="black"/>
<path d="M16.7052 56.8533H13.921V59.2222H16.7052L16.7052 56.8533Z" fill="black"/>
<path d="M19.4894 56.8533H16.7052L16.7052 59.2222H19.4894V56.8533Z" fill="black"/>
<path d="M25.0577 56.8533H22.2736V59.2222H25.0577V56.8533Z" fill="black"/>
<path d="M33.4103 56.8533H30.6261V59.2222H33.4103V56.8533Z" fill="black"/>
<path d="M36.1945 56.8533H33.4103V59.2222H36.1945V56.8533Z" fill="black"/>
<path d="M47.3313 56.8533H44.5471V59.2222H47.3313V56.8533Z" fill="black"/>
<path d="M61.2523 56.8533H58.4681V59.2222H61.2523V56.8533Z" fill="black"/>
<path d="M69.6049 56.8533H66.8207V59.2222H69.6049V56.8533Z" fill="black"/>
</mask>
<g mask="url(#mask0_9216_104831)">
</g>
</svg>
