<svg width="24" height="24" viewBox="0 0 24 24" fill="none" xmlns="http://www.w3.org/2000/svg">
<path d="M11.5 22H2.125V2H20.875V12H22.4375V2C22.4375 1.46957 22.2729 0.960859 21.9799 0.585786C21.6868 0.210714 21.2894 0 20.875 0H2.125C1.7106 0 1.31317 0.210714 1.02015 0.585786C0.72712 0.960859 0.5625 1.46957 0.5625 2V22C0.5625 22.5304 0.72712 23.0391 1.02015 23.4142C1.31317 23.7893 1.7106 24 2.125 24H11.5V22Z" fill="black"/>
<path d="M18 13L19.912 16.703L24 17.297L21 20L21.771 24L18 21.75L14.229 24L15 20L12 17.297L16.2 16.703L18 13ZM4 12H13V14H4V12ZM4 8H14V10H4V8ZM4 4H14V6H4V4Z" fill="black"/>
</svg>
