<svg width="50" height="48" viewBox="0 0 50 48" fill="none" xmlns="http://www.w3.org/2000/svg">
<path d="M45.6923 39C45.6923 39.5523 45.2446 40 44.6923 40H23.8461C23.2938 40 22.8461 39.5523 22.8461 39V27C22.8461 26.4477 23.2938 26 23.8461 26H44.6923C45.2445 26 45.6923 26.4477 45.6923 27V39ZM18.6923 39C18.6923 39.5523 18.2446 40 17.6923 40H5.15381C4.60152 40 4.15381 39.5523 4.15381 39V27C4.15381 26.4477 4.60152 26 5.15381 26H17.6923C18.2446 26 18.6923 26.4477 18.6923 27V39ZM45.6923 21C45.6923 21.5523 45.2446 22 44.6923 22H5.15381C4.60152 22 4.15381 21.5523 4.15381 21V9C4.15381 8.44772 4.60152 8 5.15381 8H44.6923C45.2446 8 45.6923 8.44772 45.6923 9V21Z" fill="white"/>
</svg>
