<svg width="24" height="24" viewBox="0 0 24 24" fill="none" xmlns="http://www.w3.org/2000/svg">
<path d="M20.375 4H4.625C3.92904 4.00074 3.26179 4.27755 2.76967 4.76967C2.27755 5.26179 2.00074 5.92904 2 6.625V17.875C2.00074 18.571 2.27755 19.2382 2.76967 19.7303C3.26179 20.2225 3.92904 20.4993 4.625 20.5H20.375C21.071 20.4993 21.7382 20.2225 22.2303 19.7303C22.7225 19.2382 22.9993 18.571 23 17.875V6.625C22.9993 5.92904 22.7225 5.26179 22.2303 4.76967C21.7382 4.27755 21.071 4.00074 20.375 4V4ZM19.7103 8.34203L12.9603 13.592C12.8287 13.6944 12.6667 13.7499 12.5 13.7499C12.3333 13.7499 12.1713 13.6944 12.0397 13.592L5.28969 8.34203C5.21038 8.28214 5.14377 8.20709 5.09372 8.12123C5.04367 8.03537 5.01118 7.94042 4.99815 7.8419C4.98511 7.74338 4.99179 7.64325 5.01778 7.54733C5.04378 7.45142 5.08858 7.36162 5.14958 7.28316C5.21058 7.20471 5.28656 7.13916 5.37312 7.09032C5.45967 7.04149 5.55506 7.01034 5.65376 6.99869C5.75245 6.98704 5.85248 6.99513 5.94802 7.02247C6.04357 7.04981 6.13272 7.09587 6.21031 7.15797L12.5 12.0498L18.7897 7.15797C18.947 7.0392 19.1447 6.98711 19.3401 7.01296C19.5354 7.03881 19.7128 7.14053 19.8338 7.29612C19.9547 7.45171 20.0096 7.64866 19.9865 7.84439C19.9634 8.04011 19.8642 8.21888 19.7103 8.34203Z" fill="#333333"/>
</svg>
