<svg width="48" height="48" viewBox="0 0 48 48" fill="none" xmlns="http://www.w3.org/2000/svg">
<path d="M13.3564 2.39221C9.353 3.40077 6.41666 6.97869 5.94938 10.9472C5.06465 16.9549 7.66357 22.8355 11.1312 27.6596C10.483 29.067 9.59584 29.8305 8.30703 27.9445C5.96065 24.7723 4.24849 21.1763 3.09661 17.4401C2.3656 22.2734 5.9498 26.9048 8.22872 30.3159C7.78842 32.2832 5.34157 34.9243 5.4369 34.886C4.14288 36.4574 2.71646 39.6413 4.08048 41.4989C5.93412 44.5577 9.38075 47.0975 13.1355 46.9971C15.4745 46.4465 16.6044 44.0956 18.0329 42.4064L19.5783 40.3738C24.781 43.0897 30.6512 45.4496 36.6516 44.3702C41.0872 43.6973 44.7713 40.1281 45.5377 35.8071C47.0501 28.5155 43.8062 21.1818 39.4438 15.4102C34.9203 9.56562 28.857 4.39246 21.471 2.50415C18.8266 1.96869 15.9995 1.75471 13.3564 2.39221ZM23.7502 5.28492C29.4124 7.08571 33.6918 11.4639 37.4812 15.7598C41.622 20.9078 44.4124 27.7116 43.0481 34.3135C42.0542 38.5513 38.0464 41.8223 33.5981 41.9905C29.2717 42.2643 24.9643 40.95 21.1566 39.028C21.0779 38.4257 22.0675 36.484 23.0118 37.5043C27.0471 39.5554 31.9819 40.4713 36.3814 39.0646C39.2268 38.0305 41.2856 35.3332 41.3672 32.3468C41.9008 26.0196 37.9542 20.2905 33.3856 16.1795C31.8925 14.455 30.2078 13.7886 27.8248 14.9533C24.459 16.462 20.9548 17.7136 17.6752 19.3845C15.4964 21.3835 13.9686 23.9556 12.1251 26.2447C11.4885 25.4883 10.8637 24.1658 10.307 23.1872C8.06898 18.8606 6.55248 13.3494 9.28553 8.88609C11.632 4.89635 16.8825 3.773 21.2127 4.66212C22.0717 4.81325 22.9197 5.02299 23.7502 5.28492ZM29.8162 15.1444C29.0904 19.2336 28.6344 23.3823 28.1049 27.4898C26.2123 30.4938 23.7952 33.2682 21.9337 36.2249C19.9599 38.8062 17.9266 41.6479 15.8181 43.8502C14.7098 45.7096 12.4456 46.7862 10.375 45.7156C7.61159 44.5804 4.83189 42.3943 4.24309 39.3803C4.92895 37.0141 6.81782 35.0956 8.16336 33.0274C11.5368 28.6811 14.5152 24.0799 17.8505 20.1774C21.8693 18.4601 26.093 16.735 29.9135 14.9435L29.8162 15.1444ZM18.6444 21.6967C16.8725 22.5527 16.1248 24.7934 14.7741 26.2219C12.9237 28.7654 10.8614 31.193 9.31949 33.9303C9.82423 35.7668 10.4451 36.1175 11.5358 37.3754C13.1411 38.4919 16.3376 41.374 18.3665 38.5408C21.0492 35.2085 23.7211 31.8407 25.9767 28.2139L28.155 19.43L26.2371 17.9379C24.3046 19.0176 18.6444 21.6967 18.6444 21.6967ZM16.7893 30.0623C15.2177 32.1373 13.7506 34.3133 11.9751 36.2237C9.70148 34.7428 11.1359 32.8106 12.3581 30.9721C14.3834 28.3955 16.1926 25.6465 18.3654 23.1872C21.4206 25.9283 17.37 28.7777 16.7893 30.0623ZM24.7992 27.978C24.244 29.8902 22.5785 31.4382 21.4746 33.1263C19.9297 35.1573 18.424 37.2181 16.8182 39.204C15.7737 38.6534 14.6095 38.6031 13.7786 37.7511C15.3547 35.3329 17.1482 32.8223 18.8906 30.4844C20.5863 28.42 22.7252 27.166 24.7992 27.978ZM7.38017 35.8024C5.64007 37.8516 8.32402 40.0667 9.80955 41.3593C11.1744 42.4828 12.9114 43.3218 14.6491 43.0448C15.7458 42.8699 17.0924 41.5063 16.1608 40.9061C13.8781 39.4352 10.9754 38.4077 9.4307 35.8589C8.7095 34.5341 8.22465 34.5201 7.38017 35.8024ZM9.2725 37.2387C10.6022 39.2714 13.0365 40.0754 15.0041 41.327C14.6864 43.6127 11.6703 41.7123 10.5726 40.8367C9.47839 39.8091 6.32493 37.5328 8.4445 36.2922C8.81913 36.517 9.01896 36.9075 9.2725 37.2387ZM5.53549 38.7148C5.11191 41.0023 7.14975 42.9626 8.98745 44.0768C10.0421 44.705 13.6466 45.9291 13.2883 43.97C10.5219 43.1081 8.06941 41.2522 6.54125 38.8193C6.30833 38.4225 5.69672 38.0041 5.53549 38.7148ZM35.1897 20.2564C37.9039 23.7822 40.212 28.396 38.8066 32.8778C37.4546 36.8607 32.5357 38.1895 28.698 37.424C27.1449 36.8912 23.5745 36.8481 23.7628 35.0468C25.3936 32.7442 27.1545 30.5337 28.8644 28.2874C29.4448 24.1189 29.9206 19.884 30.5885 15.7684C32.347 16.9907 33.8084 18.6396 35.1897 20.2564Z" fill="white"/>
</svg>
