<svg width="25" height="24" viewBox="0 0 25 24" fill="none" xmlns="http://www.w3.org/2000/svg">
<path d="M7.49634 5.27039C7.05778 4.53176 6.44525 4.125 5.76917 4.125C5.08948 4.125 4.47493 4.5293 4.0384 5.26336C3.59715 6.00551 3.38215 7.01414 3.43263 8.10328C3.53269 10.252 4.58085 12 5.76917 12C6.9575 12 8.00385 10.2524 8.10549 8.10398C8.15664 7.02469 7.9403 6.01816 7.49634 5.27039ZM9.73552 19.875H1.80283C1.69899 19.8771 1.59617 19.8431 1.50183 19.7754C1.40748 19.7077 1.324 19.6081 1.25745 19.4837C1.11097 19.2105 1.05192 18.8375 1.09564 18.4603C1.28585 16.8143 1.87945 15.4316 2.81244 14.4609C3.64132 13.5993 4.69127 13.125 5.76917 13.125C6.84707 13.125 7.89703 13.5996 8.7259 14.4609C9.6589 15.4312 10.2525 16.8139 10.4427 18.46C10.4864 18.8372 10.4274 19.2102 10.2809 19.4834C10.2144 19.6078 10.1309 19.7075 10.0365 19.7752C9.94221 19.843 9.83937 19.8771 9.73552 19.875Z" fill="#333333"/>
<path d="M15.7155 3.02719C15.0211 2.04234 14.0513 1.5 12.9808 1.5C11.9046 1.5 10.9316 2.03906 10.2404 3.01781C9.54175 4.00734 9.20135 5.35219 9.28128 6.80437C9.4397 9.66937 11.0993 12 12.9808 12C14.8623 12 16.519 9.66984 16.68 6.80531C16.761 5.36625 16.4184 4.02422 15.7155 3.02719ZM19.2608 22.5H6.70075C6.53635 22.5028 6.37354 22.4574 6.22416 22.3672C6.07479 22.2769 5.94261 22.1441 5.83724 21.9783C5.60531 21.6141 5.51182 21.1167 5.58104 20.6137C5.8822 18.4191 6.82207 16.5755 8.2993 15.2812C9.61169 14.1323 11.2741 13.5 12.9808 13.5C14.6875 13.5 16.3499 14.1328 17.6623 15.2812C19.1395 16.575 20.0794 18.4186 20.3805 20.6133C20.4498 21.1162 20.3563 21.6136 20.1243 21.9778C20.019 22.1437 19.8868 22.2766 19.7375 22.367C19.5881 22.4573 19.4253 22.5028 19.2608 22.5Z" fill="#333333"/>
<path d="M20.9579 5.01812C20.5193 4.36156 19.9068 4 19.2307 4C18.551 4 17.9365 4.35937 17.5 5.01187C17.0587 5.67156 16.8437 6.56813 16.8942 7.53625C16.9942 9.44625 18.0424 11 19.2307 11C20.419 11 21.4654 9.44656 21.567 7.53687C21.6182 6.5775 21.4018 5.68281 20.9579 5.01812ZM23.1971 18H15.2644C15.1605 18.0019 15.0577 17.9716 14.9634 17.9115C14.869 17.8513 14.7856 17.7627 14.719 17.6522C14.5725 17.4094 14.5135 17.0778 14.5572 16.7425C14.7474 15.2794 15.341 14.0503 16.274 13.1875C17.1029 12.4216 18.1528 12 19.2307 12C20.3086 12 21.3586 12.4219 22.1875 13.1875C23.1204 14.05 23.714 15.2791 23.9042 16.7422C23.948 17.0775 23.8889 17.4091 23.7424 17.6519C23.6759 17.7625 23.5924 17.8511 23.4981 17.9113C23.4038 17.9715 23.3009 18.0018 23.1971 18Z" fill="#333333"/>
</svg>
