<svg width="48" height="48" viewBox="0 0 48 48" fill="none" xmlns="http://www.w3.org/2000/svg">
<path d="M23.9948 1.32026C14.9513 1.1976 6.23756 7.01775 2.80726 15.3717C-0.775715 23.5798 1.08596 33.7762 7.35347 40.1777C13.3815 46.6663 23.3132 49.0479 31.6311 46.0119C40.2516 43.0765 46.6157 34.6107 46.9616 25.499C47.5419 16.5457 42.2744 7.61321 34.2089 3.71317C31.0506 2.13711 27.5239 1.31522 23.9948 1.32026ZM23.9948 3.8064C32.9271 3.65104 41.4222 10.0674 43.7285 18.6966C46.1408 26.824 42.8778 36.234 35.8746 41.0476C28.5998 46.3947 17.8118 46.0079 10.942 40.1488C4.02022 34.6301 1.54256 24.4221 5.09389 16.3271C8.17193 8.84345 15.8984 3.71141 23.9948 3.8064ZM13.5623 16.3602V32.2739H34.4273V16.3602H13.5623V16.3602ZM18.1973 18.8464H29.7906C27.7371 20.11 25.6835 22.8839 23.6303 23.1865C21.8194 21.7398 20.0083 20.2931 18.1973 18.8464H18.1973ZM31.9441 20.3101V29.7877H16.0455V20.3108C18.6944 22.4278 21.3434 24.545 23.9925 26.6619C26.6431 24.5447 29.2936 22.4273 31.9441 20.3101Z" fill="white" stroke="white"/>
</svg>
