<svg width="19" height="27" viewBox="0 0 19 27" fill="none" xmlns="http://www.w3.org/2000/svg">
<path d="M17.1988 12.2727L12.9004 16.2389L16.3164 10.4941C13.6251 5.6025 9.22355 1.375 9.22355 1.375C9.22355 1.375 0.0917969 10.1439 0.0917969 17.0368C0.0917969 23.9297 4.18019 26.3364 9.22355 26.3364C14.2668 26.3364 18.3552 23.9296 18.3552 17.0367C18.2984 15.3862 17.9048 13.7649 17.1988 12.2727Z" fill="#00BFA6"/>
<path d="M11.7949 16.453V16.7928C11.7747 20.7421 11.1102 23.8235 9.80624 25.9932C9.78778 26.0252 9.76764 26.0555 9.74917 26.0874L9.60318 25.9983L9.46389 25.9108C10.9105 23.5678 11.4223 20.256 11.4408 16.8113C11.4425 16.7002 11.4441 16.5876 11.4425 16.4749C11.4374 15.0166 11.3485 13.5415 11.2058 12.1084C11.1958 11.9974 11.184 11.8847 11.1723 11.772C10.9742 9.88148 10.6889 8.07504 10.3969 6.50574C10.3768 6.39473 10.355 6.28371 10.3332 6.17438C9.82804 3.52021 9.31285 1.59771 9.19538 1.17217C9.18196 1.12002 9.17356 1.09144 9.17188 1.08471L9.3313 1.03929L9.33299 1.03761L9.49409 0.992188C9.49577 0.998923 9.5243 1.09479 9.57129 1.27308C9.75085 1.93914 10.2174 3.74728 10.6755 6.13233C10.6957 6.23998 10.7175 6.35099 10.7376 6.462C10.9759 7.73526 11.2092 9.15823 11.3938 10.6518C11.4408 11.0269 11.4827 11.397 11.5196 11.762C11.5331 11.8746 11.5448 11.9873 11.5549 12.0983C11.7093 13.6475 11.7893 15.099 11.7949 16.453Z" fill="white"/>
<path d="M10.6766 6.13232C10.5641 6.14746 10.45 6.1626 10.3342 6.17437C10.0198 6.20681 9.70386 6.22311 9.38774 6.22317C8.04052 6.22496 6.71006 5.92377 5.49439 5.3418C5.42391 5.43094 5.35342 5.52008 5.28125 5.61091C6.56009 6.23657 7.96466 6.56106 9.38772 6.55957C9.72518 6.55947 10.0624 6.5415 10.398 6.50574C10.5121 6.49396 10.6262 6.47881 10.7386 6.46199C11.6668 6.32856 12.5693 6.05464 13.4153 5.64958C13.3432 5.55708 13.2727 5.46625 13.2039 5.3771C12.4031 5.7522 11.5515 6.00669 10.6766 6.13232Z" fill="white"/>
<path d="M11.0854 11.8786C10.9696 11.8854 10.8538 11.8887 10.738 11.8887C10.7028 11.8904 10.6659 11.8904 10.6306 11.8904C9.17082 11.8904 7.73267 11.5367 6.43877 10.8592C5.14488 10.1818 4.0336 9.20088 3.19969 8C3.13257 8.09923 3.06544 8.19846 3 8.29938C3.86918 9.51446 5.0147 10.5045 6.34168 11.1875C7.66865 11.8705 9.13889 12.2268 10.6306 12.2268C10.6776 12.2268 10.7246 12.2268 10.7716 12.2251C10.889 12.2234 11.0048 12.2201 11.1206 12.215C12.9124 12.123 14.6399 11.5158 16.0964 10.4658C16.0427 10.3665 15.989 10.2673 15.9336 10.1681C14.518 11.1989 12.8331 11.7934 11.0854 11.8786Z" fill="white"/>
<path d="M11.7948 16.4535C11.6774 16.4636 11.5599 16.4704 11.4424 16.4754C11.3166 16.4804 11.1907 16.4838 11.0648 16.4838C9.10327 16.4815 7.19521 15.8425 5.62631 14.6624C4.05742 13.4823 2.91212 11.8246 2.36188 9.9375C2.28636 10.0738 2.21083 10.2083 2.13867 10.3445C2.75865 12.2273 3.95481 13.8663 5.55721 15.0288C7.1596 16.1913 9.08673 16.8181 11.0648 16.8202C11.1907 16.8202 11.3166 16.8185 11.4408 16.8118C11.5599 16.8084 11.6774 16.8017 11.7948 16.7933C14.1676 16.6072 16.3812 15.5244 17.9873 13.764C17.952 13.6396 17.9118 13.5168 17.8715 13.3923C16.3202 15.1659 14.1405 16.2639 11.7948 16.4535Z" fill="white"/>
</svg>
