<svg width="21" height="23" viewBox="0 0 21 23" fill="none" xmlns="http://www.w3.org/2000/svg">
<path d="M19.4484 14.308L13.6156 14.6452L19.8907 12.3718C20.9024 6.87857 20.1713 0.8125 20.1713 0.8125C20.1713 0.8125 7.56288 1.79389 3.20392 7.12537C-1.15504 12.4569 0.485257 16.9156 4.38616 20.1195C8.287 23.3233 12.9712 24.059 17.3302 18.7275C18.33 17.4148 19.0509 15.9107 19.4484 14.308Z" fill="#00BFA6"/>
<path d="M12.6277 14.11L12.4128 14.3728C9.89977 17.4147 7.43712 19.3759 5.05643 20.2258C5.02194 20.2388 4.98724 20.2494 4.95274 20.2624L4.89618 20.1007L4.84375 19.9446C7.44433 19.0513 9.93459 16.8148 12.1273 14.1621C12.1988 14.0773 12.2713 13.9912 12.3413 13.903C13.2596 12.7718 14.1236 11.5744 14.9196 10.3753C14.982 10.2831 15.0442 10.1885 15.1063 10.0938C16.1487 8.50573 17.0704 6.92725 17.837 5.52793C17.8916 5.42927 17.9449 5.32956 17.9972 5.23113C19.285 2.8573 20.1022 1.04298 20.2805 0.639202C20.3031 0.590348 20.3147 0.562912 20.3176 0.556641L20.4696 0.62279L20.472 0.62255L20.6254 0.689778C20.6224 0.696052 20.5838 0.788321 20.5074 0.956071C20.2251 1.58533 19.4425 3.28025 18.2886 5.41608C18.2361 5.51214 18.1827 5.61187 18.1281 5.71053C17.5072 6.84675 16.7878 8.09556 15.9861 9.3681C15.7852 9.68807 15.5837 10.0009 15.3814 10.3067C15.3205 10.4024 15.2584 10.497 15.1959 10.5893C14.3357 11.8856 13.4796 13.0591 12.6277 14.11Z" fill="white"/>
<path d="M18.2887 5.41524C18.1922 5.35553 18.0943 5.29475 17.9973 5.23029C17.7336 5.05563 17.4789 4.86752 17.2344 4.66674C16.1912 3.81228 15.3526 2.73413 14.7803 1.51172C14.6695 1.53589 14.5586 1.56009 14.4453 1.5845C15.0388 2.88083 15.92 4.02408 17.0216 4.92694C17.2827 5.14125 17.5549 5.34158 17.8371 5.52709C17.9328 5.59048 18.0307 5.65125 18.1282 5.70967C18.9305 6.19607 19.8018 6.55754 20.7123 6.78171C20.715 6.66432 20.7179 6.54929 20.7211 6.43663C19.8645 6.21807 19.0449 5.8739 18.2887 5.41524Z" fill="white"/>
<path d="M15.381 10.3065C15.2872 10.2381 15.1955 10.1672 15.1059 10.0936C15.0776 10.0725 15.049 10.0491 15.0218 10.0267C13.8926 9.09936 13.004 7.9121 12.4316 6.56615C11.8592 5.22021 11.62 3.75549 11.7344 2.29688C11.6197 2.33099 11.505 2.36512 11.3906 2.4016C11.2945 3.89361 11.5545 5.3871 12.1489 6.75837C12.7434 8.12964 13.6553 9.3392 14.809 10.2869C14.8454 10.3167 14.8817 10.3466 14.9191 10.3751C15.011 10.4485 15.1027 10.5194 15.1955 10.5891C16.6396 11.6562 18.3597 12.2839 20.1503 12.397C20.1715 12.2861 20.1928 12.1753 20.2127 12.0634C18.4658 11.9614 16.7867 11.3509 15.381 10.3065Z" fill="white"/>
<path d="M12.6252 14.1106C12.528 14.0438 12.4329 13.9743 12.3388 13.9036C12.2383 13.8276 12.1388 13.7502 12.0414 13.6703C10.5256 12.4224 9.4539 10.716 8.98668 8.80653C8.51946 6.89708 8.6819 4.88731 9.44967 3.07812C9.3051 3.13554 9.1616 3.19164 9.01963 3.25118C8.30857 5.10127 8.19727 7.1289 8.70155 9.04601C9.20582 10.9631 10.3 12.6722 11.8287 13.9304C11.9261 14.0104 12.0245 14.0891 12.1248 14.1628C12.2191 14.2358 12.3142 14.3053 12.4104 14.3734C14.3633 15.7368 16.7602 16.3055 19.1158 15.9642C19.1672 15.8455 19.2137 15.725 19.2613 15.6031C16.9398 15.9894 14.5594 15.454 12.6252 14.1106Z" fill="white"/>
</svg>
