<svg width="180" height="26" viewBox="0 0 180 26" fill="none" xmlns="http://www.w3.org/2000/svg">
<path d="M17.107 11.2801L12.8086 15.2462L16.2246 9.50141C13.5333 4.60983 9.13175 0.382324 9.13175 0.382324C9.13175 0.382324 0 9.15118 0 16.0441C0 22.937 4.08839 25.3437 9.13175 25.3437C14.175 25.3437 18.2634 22.937 18.2634 16.0441C18.2066 14.3936 17.813 12.7722 17.107 11.2801Z" fill="#00BFA6"/>
<path d="M11.7031 15.4608V15.8006C11.6829 19.7499 11.0184 22.8313 9.71444 25.001C9.69598 25.033 9.67584 25.0633 9.65737 25.0952L9.51138 25.0061L9.37209 24.9186C10.8187 22.5756 11.3305 19.2638 11.349 15.8191C11.3507 15.7081 11.3523 15.5954 11.3507 15.4827C11.3456 14.0244 11.2567 12.5493 11.114 11.1162C11.104 11.0052 11.0922 10.8925 11.0805 10.7798C10.8824 8.8893 10.5971 7.08285 10.3051 5.51356C10.285 5.40254 10.2632 5.29152 10.2414 5.18219C9.73625 2.52802 9.22105 0.605524 9.10359 0.179978C9.09017 0.127837 9.08176 0.0992507 9.08008 0.0925249L9.23951 0.047101L9.24119 0.0454239L9.40229 0C9.40397 0.00673564 9.4325 0.102599 9.47949 0.280889C9.65905 0.946949 10.1256 2.75509 10.5837 5.14014C10.6039 5.2478 10.6257 5.3588 10.6458 5.46981C10.8841 6.74308 11.1174 8.16604 11.302 9.65965C11.349 10.0347 11.3909 10.4048 11.4278 10.7698C11.4413 10.8825 11.453 10.9952 11.4631 11.1062C11.6175 12.6553 11.6975 14.1068 11.7031 15.4608Z" fill="white"/>
<path d="M10.5848 5.14013C10.4723 5.15527 10.3582 5.17041 10.2424 5.18218C9.92797 5.21463 9.61206 5.23092 9.29594 5.23098C7.94872 5.23277 6.61826 4.93158 5.40259 4.34961C5.33211 4.43875 5.26162 4.52789 5.18945 4.61872C6.46829 5.24438 7.87286 5.56887 9.29592 5.56738C9.63339 5.56729 9.97061 5.54931 10.3062 5.51355C10.4203 5.50177 10.5344 5.48662 10.6468 5.4698C11.575 5.33637 12.4775 5.06245 13.3235 4.6574C13.2514 4.56489 13.1809 4.47406 13.1121 4.38491C12.3113 4.76001 11.4597 5.0145 10.5848 5.14013V5.14013Z" fill="white"/>
<path d="M10.9936 10.8857C10.8778 10.8925 10.762 10.8958 10.6462 10.8958C10.611 10.8975 10.5741 10.8975 10.5388 10.8975C9.07902 10.8975 7.64088 10.5437 6.34698 9.86632C5.05308 9.1889 3.94181 8.20796 3.10789 7.00708C3.04077 7.10631 2.97364 7.20554 2.9082 7.30646C3.77739 8.52154 4.92291 9.51158 6.24988 10.1946C7.57686 10.8776 9.0471 11.2338 10.5388 11.2339C10.5858 11.2339 10.6328 11.2339 10.6798 11.2322C10.7972 11.2305 10.913 11.2272 11.0288 11.2221C12.8206 11.1301 14.5481 10.5228 16.0046 9.47286C15.9509 9.37363 15.8972 9.27439 15.8418 9.17516C14.4262 10.206 12.7413 10.8005 10.9936 10.8857V10.8857Z" fill="white"/>
<path d="M11.703 15.4609C11.5856 15.471 11.4681 15.4777 11.3506 15.4827C11.2248 15.4878 11.0989 15.4911 10.973 15.4911C9.01147 15.4889 7.10341 14.8499 5.53452 13.6697C3.96563 12.4896 2.82033 10.8319 2.27008 8.94482C2.19456 9.08108 2.11904 9.21562 2.04688 9.35186C2.66686 11.2346 3.86302 12.8736 5.46541 14.0361C7.0678 15.1986 8.99494 15.8254 10.973 15.8275C11.0989 15.8275 11.2248 15.8258 11.349 15.8191C11.4681 15.8158 11.5856 15.809 11.703 15.8006C14.0758 15.6146 16.2894 14.5317 17.8955 12.7713C17.8602 12.6469 17.82 12.5241 17.7797 12.3996C16.2284 14.1732 14.0487 15.2712 11.703 15.4609V15.4609Z" fill="white"/>
<path d="M178.357 17.3161L172.524 17.6532L178.799 15.3798C179.811 9.88662 179.08 3.82056 179.08 3.82056C179.08 3.82056 166.471 4.80195 162.112 10.1334C157.753 15.4649 159.393 19.9237 163.294 23.1276C167.195 26.3314 171.879 27.0671 176.238 21.7356C177.238 20.4229 177.959 18.9188 178.357 17.3161V17.3161Z" fill="#00BFA6"/>
<path d="M171.536 17.117L171.321 17.3798C168.808 20.4217 166.345 22.383 163.965 23.2329C163.93 23.2459 163.895 23.2565 163.861 23.2695L163.804 23.1078L163.752 22.9516C166.353 22.0583 168.843 19.8219 171.035 17.1692C171.107 17.0844 171.18 16.9983 171.249 16.9101C172.168 15.7789 173.032 14.5815 173.828 13.3824C173.89 13.2902 173.952 13.1955 174.015 13.1009C175.057 11.5128 175.979 9.93433 176.745 8.53501C176.8 8.43635 176.853 8.33664 176.905 8.23821C178.193 5.86438 179.01 4.05006 179.189 3.64628C179.211 3.59743 179.223 3.56999 179.226 3.56372L179.378 3.62987L179.38 3.62963L179.534 3.69686C179.531 3.70313 179.492 3.7954 179.416 3.96315C179.133 4.59241 178.351 6.28733 177.197 8.42316C177.144 8.51922 177.091 8.61895 177.036 8.71761C176.415 9.85383 175.696 11.1026 174.894 12.3752C174.693 12.6952 174.492 13.008 174.29 13.3138C174.229 13.4095 174.167 13.5041 174.104 13.5964C173.244 14.8926 172.388 16.0662 171.536 17.117Z" fill="white"/>
<path d="M177.197 8.42306C177.1 8.36334 177.003 8.30257 176.906 8.23811C176.642 8.06344 176.387 7.87533 176.143 7.67455C175.099 6.82009 174.261 5.74194 173.689 4.51953C173.578 4.54371 173.467 4.5679 173.354 4.59231C173.947 5.88864 174.828 7.03189 175.93 7.93476C176.191 8.14906 176.463 8.3494 176.745 8.53491C176.841 8.5983 176.939 8.65906 177.036 8.71748C177.839 9.20388 178.71 9.56535 179.621 9.78952C179.623 9.67213 179.626 9.5571 179.629 9.44444C178.773 9.22589 177.953 8.88171 177.197 8.42306V8.42306Z" fill="white"/>
<path d="M174.289 13.3138C174.195 13.2455 174.104 13.1745 174.014 13.101C173.986 13.0799 173.957 13.0564 173.93 13.034C172.801 12.1067 171.912 10.9194 171.34 9.57348C170.767 8.22753 170.528 6.76282 170.643 5.3042C170.528 5.33831 170.413 5.37244 170.299 5.40892C170.203 6.90094 170.463 8.39443 171.057 9.7657C171.652 11.137 172.563 12.3465 173.717 13.2942C173.754 13.3241 173.79 13.3539 173.827 13.3825C173.919 13.4558 174.011 13.5267 174.104 13.5964C175.548 14.6635 177.268 15.2912 179.059 15.4043C179.08 15.2935 179.101 15.1826 179.121 15.0707C177.374 14.9688 175.695 14.3582 174.289 13.3138V13.3138Z" fill="white"/>
<path d="M171.533 17.1169C171.436 17.0501 171.341 16.9807 171.247 16.91C171.146 16.8339 171.047 16.7566 170.95 16.6766C169.434 15.4287 168.362 13.7223 167.895 11.8129C167.428 9.90342 167.59 7.89365 168.358 6.08447C168.213 6.14188 168.07 6.19798 167.928 6.25752C167.217 8.10761 167.105 10.1353 167.61 12.0524C168.114 13.9695 169.208 15.6785 170.737 16.9368C170.834 17.0168 170.933 17.0954 171.033 17.1691C171.127 17.2422 171.222 17.3116 171.319 17.3797C173.272 18.7432 175.668 19.3118 178.024 18.9705C178.075 18.8519 178.122 18.7313 178.169 18.6095C175.848 18.9957 173.468 18.4604 171.533 17.1169Z" fill="white"/>
</svg>
