<svg width="24" height="24" viewBox="0 0 24 24" fill="none" xmlns="http://www.w3.org/2000/svg">
<path d="M14.9476 2.45446C14.1992 1.51651 13.1538 1 12 1C10.84 1 9.79121 1.51339 9.04624 2.44553C8.29318 3.38793 7.92627 4.66873 8.01242 6.05176C8.18318 8.78031 9.97198 10.9999 12 10.9999C14.028 10.9999 15.8137 8.78076 15.9872 6.05265C16.0745 4.68212 15.7053 3.404 14.9476 2.45446ZM18.769 20.9999H5.23096C5.05375 21.0026 4.87827 20.9593 4.71726 20.8734C4.55626 20.7874 4.41379 20.6609 4.30021 20.503C4.05022 20.1561 3.94945 19.6825 4.02407 19.2035C4.34867 17.1133 5.36172 15.3575 6.95398 14.1249C8.36856 13.0307 10.1604 12.4285 12 12.4285C13.8396 12.4285 15.6314 13.0312 17.046 14.1249C18.6383 15.3571 19.6513 17.1129 19.9759 19.203C20.0505 19.682 19.9498 20.1557 19.6998 20.5026C19.5863 20.6605 19.4438 20.7872 19.2828 20.8732C19.1218 20.9592 18.9463 21.0025 18.769 20.9999Z" fill="#333333"/>
<path d="M20.4613 21.9999H3.53869C3.31719 22.003 3.09783 21.9526 2.89658 21.8523C2.69532 21.752 2.51723 21.6044 2.37526 21.4202C2.06277 21.0155 1.93682 20.4629 2.03008 19.9041C2.43584 17.4655 3.70215 15.4171 5.69248 13.9791C7.4607 12.7026 9.70054 12 12 12C14.2995 12 16.5393 12.7031 18.3075 13.9791C20.2978 15.4166 21.5642 17.465 21.9699 19.9035C22.0632 20.4624 21.9372 21.015 21.6247 21.4197C21.4828 21.604 21.3047 21.7517 21.1035 21.8521C20.9022 21.9524 20.6828 22.0029 20.4613 21.9999Z" fill="#333333"/>
</svg>
