<svg width="40" height="40" viewBox="0 0 48 48" fill="none" xmlns="http://www.w3.org/2000/svg">
<path d="M32 18C32 20.3869 31.0518 22.6761 29.364 24.364C27.6761 26.0518 25.3869 27 23 27C20.6131 27 18.3239 26.0518 16.636 24.364C14.9482 22.6761 14 20.3869 14 18C14 15.6131 14.9482 13.3239 16.636 11.636C18.3239 9.94821 20.6131 9 23 9C25.3869 9 27.6761 9.94821 29.364 11.636C31.0518 13.3239 32 15.6131 32 18Z" fill="#00BFA6"/>
<path fill-rule="evenodd" clip-rule="evenodd" d="M0 23C0 16.9 2.42321 11.0499 6.73654 6.73654C11.0499 2.42321 16.9 0 23 0C29.1 0 34.9501 2.42321 39.2635 6.73654C43.5768 11.0499 46 16.9 46 23C46 29.1 43.5768 34.9501 39.2635 39.2635C34.9501 43.5768 29.1 46 23 46C16.9 46 11.0499 43.5768 6.73654 39.2635C2.42321 34.9501 0 29.1 0 23ZM23 2.875C19.2101 2.8752 15.4973 3.94554 12.2889 5.96283C9.08051 7.98012 6.50694 10.8624 4.8644 14.2778C3.22186 17.6933 2.57711 21.5031 3.00437 25.2688C3.43163 29.0346 4.91353 32.6031 7.2795 35.5638C9.32075 32.2747 13.8144 28.75 23 28.75C32.1856 28.75 36.6764 32.2719 38.7205 35.5638C41.0865 32.6031 42.5684 29.0346 42.9956 25.2688C43.4229 21.5031 42.7781 17.6933 41.1356 14.2778C39.4931 10.8624 36.9195 7.98012 33.7111 5.96283C30.5027 3.94554 26.7899 2.8752 23 2.875Z" fill="#00BFA6"/>
</svg>
