<svg width="49" height="50" viewBox="0 0 49 50" fill="none" xmlns="http://www.w3.org/2000/svg">
<path fill-rule="evenodd" clip-rule="evenodd" d="M0.5 25.5C0.5 12.2464 11.2464 1.5 24.5 1.5C37.7536 1.5 48.5 12.2464 48.5 25.5C48.5 38.7536 37.7536 49.5 24.5 49.5C11.2464 49.5 0.5 38.7536 0.5 25.5ZM24.5 5.34C13.3672 5.34 4.34 14.3672 4.34 25.5C4.34 36.6328 13.3672 45.66 24.5 45.66C35.6328 45.66 44.66 36.6328 44.66 25.5C44.66 14.3672 35.6328 5.34 24.5 5.34Z" fill="white"/>
<path fill-rule="evenodd" clip-rule="evenodd" d="M19.125 20.625C19.125 19.7966 20.0204 19.125 21.125 19.125H25.125C26.2296 19.125 27.125 19.7966 27.125 20.625V31.5C27.125 32.3284 26.2296 33 25.125 33C24.0204 33 23.125 32.3284 23.125 31.5V22.125H21.125C20.0204 22.125 19.125 21.4534 19.125 20.625Z" fill="white"/>
<path fill-rule="evenodd" clip-rule="evenodd" d="M19 33.375C19 32.2704 19.6716 31.375 20.5 31.375H28.75C29.5784 31.375 30.25 32.2704 30.25 33.375C30.25 34.4796 29.5784 35.375 28.75 35.375H20.5C19.6716 35.375 19 34.4796 19 33.375Z" fill="white"/>
<path d="M23.8125 12.1875C23.2192 12.1875 22.6391 12.3634 22.1458 12.6931C21.6524 13.0227 21.2679 13.4913 21.0409 14.0394C20.8138 14.5876 20.7544 15.1908 20.8701 15.7728C20.9859 16.3547 21.2716 16.8893 21.6912 17.3088C22.1107 17.7284 22.6453 18.0141 23.2272 18.1299C23.8092 18.2456 24.4124 18.1862 24.9606 17.9591C25.5087 17.7321 25.9773 17.3476 26.3069 16.8542C26.6366 16.3609 26.8125 15.7808 26.8125 15.1875C26.8125 14.3919 26.4964 13.6288 25.9338 13.0662C25.3712 12.5036 24.6082 12.1875 23.8125 12.1875Z" fill="white"/>
</svg>
