<svg width="24" height="24" viewBox="0 0 24 24" fill="none" xmlns="http://www.w3.org/2000/svg">
<path d="M17.4216 21.2496C16.5828 21.2496 15.4046 20.9462 13.6403 19.9605C11.4949 18.7574 9.83543 17.6467 7.7016 15.5184C5.64426 13.4624 4.64309 12.1312 3.24187 9.58144C1.65891 6.70253 1.92875 5.19347 2.23039 4.54851C2.58961 3.77765 3.11984 3.31659 3.80519 2.85898C4.19447 2.60393 4.60642 2.3853 5.03582 2.20585C5.07879 2.18737 5.11875 2.16976 5.15441 2.15386C5.36711 2.05804 5.68937 1.91323 6.09758 2.06792C6.37 2.17019 6.6132 2.37945 6.99391 2.75542C7.77465 3.52542 8.84156 5.2403 9.23515 6.08249C9.49941 6.65011 9.6743 7.0248 9.67473 7.44503C9.67473 7.93702 9.42723 8.31644 9.12687 8.72593C9.07058 8.80284 9.01472 8.87632 8.96058 8.94765C8.63359 9.37734 8.56183 9.50152 8.6091 9.72323C8.70492 10.1688 9.41949 11.4953 10.5938 12.667C11.7682 13.8388 13.0564 14.5082 13.5037 14.6036C13.7348 14.653 13.8616 14.5783 14.305 14.2397C14.3686 14.1911 14.4339 14.1409 14.5023 14.0906C14.9603 13.7498 15.3221 13.5088 15.8025 13.5088H15.8051C16.2232 13.5088 16.5811 13.6901 17.1741 13.9892C17.9475 14.3793 19.7139 15.4325 20.4887 16.2141C20.8655 16.5939 21.0756 16.8363 21.1783 17.1083C21.333 17.5178 21.1873 17.8387 21.0924 18.0536C21.0765 18.0892 21.0589 18.1284 21.0404 18.1717C20.8595 18.6004 20.6396 19.0115 20.3834 19.3998C19.9266 20.083 19.4639 20.6119 18.6913 20.9716C18.2946 21.1592 17.8604 21.2543 17.4216 21.2496Z" fill="#333333"/>
</svg>
