<svg width="32" height="28" viewBox="0 0 32 28" fill="none" xmlns="http://www.w3.org/2000/svg">
<path d="M2.85455 24.2856L15.0207 24.2857L29.1472 24.2858C29.6166 24.2858 30 24.6656 30 25.1429C30 25.6203 29.6167 25.9998 29.1475 25.9998L15.0207 25.9998L2.85199 25.9998C2.38426 25.9999 2.00054 25.6215 2.00054 25.1419C2.00055 24.6669 2.3836 24.2856 2.85455 24.2856Z" fill="black" stroke="white" stroke-width="4"/>
<path d="M2.85455 13.1428L15.0207 13.1429L29.1472 13.143C29.6166 13.143 30 13.5228 30 14C30 14.4774 29.6167 14.857 29.1475 14.857L15.0207 14.857L2.85199 14.857C2.38426 14.857 2.00054 14.4787 2.00054 13.9991C2.00055 13.524 2.3836 13.1428 2.85455 13.1428Z" fill="black" stroke="white" stroke-width="4"/>
<path d="M2.85455 2L15.0207 2.00008L29.1472 2.00013C29.6166 2.00013 30 2.37997 30 2.85723C30 3.33461 29.6167 3.71417 29.1475 3.71417L15.0207 3.71417L2.85199 3.71421C2.38426 3.71421 2.00054 3.3359 2.00054 2.85623C2.00055 2.38122 2.3836 2 2.85455 2Z" fill="black" stroke="white" stroke-width="4"/>
</svg>
