<svg width="225" height="225" viewBox="0 0 225 225" fill="none" xmlns="http://www.w3.org/2000/svg">
<g filter="url(#filter0_d_1_2)">
<path d="M97 13.9C89.7 16.2 84.2 20.8 80.7 27.5C78.7 31.2 78.5 33.2 78.2 55.2L77.8 79H55.6C30.4 79 26.7 79.7 20.5 85.7C14.7 91.3 12.7 96.8 12.2 108.8L11.7 119L42.5 118.8L73.3 118.5L81.4 96C89 75.1 89.7 73.5 92 73.5C95.2 73.5 95.4 74.8 97.4 101C98.3 112.8 99.3 123.6 99.7 125C100.1 126.8 101.4 123.5 104.4 112.5C108 99.9 109 97.5 110.7 97.2C113.4 96.8 114.6 98.5 115.9 105C119.1 120.1 118.9 120.1 122.6 104.5C127.6 83.7 127.8 83 130 83C131 83 132.2 83.6 132.7 84.2C133.1 84.9 134.9 94.9 136.6 106.5C139.8 128.4 139.7 128.2 142.5 120.2C142.8 119.3 150.6 119 177 119H211V108.2C211 100 210.5 96.6 209.1 93.5C206.8 88.4 199.3 81.7 194.2 80.2C191.7 79.4 182.2 79 168.2 79H146.2L145.8 55.7C145.4 30.1 144.9 27.7 138.7 21.2C132.4 14.6 129.1 13.6 113.5 13.3C105.8 13.2 98.4 13.4 97 13.9Z" fill="#0D8D40"/>
<path d="M84 108.3C81.1 116.7 78.2 124.1 77.7 124.7C77 125.7 69.2 126 44.8 126H12.9L13.6 128.2C15.8 135.6 21.9 142.1 28.8 144.4C32.4 145.7 38 146 55.6 146H77.8L78.2 169.7C78.5 191.8 78.7 193.8 80.7 197.5C83.4 202.6 87.4 206.6 92.5 209.4C96.1 211.3 98.1 211.5 112 211.5C129.3 211.5 132.1 210.7 138.7 203.8C144.9 197.3 145.4 194.9 145.8 169.2L146.2 146H168.2C193.1 146 196 145.5 202.5 139.8C206.5 136.3 211 129.1 211 126.2C211 125.3 203.4 125 179.3 125.2L147.6 125.5L144.6 135.4C142.9 140.8 140.7 145.8 139.8 146.3C136.3 148.5 135.4 145.7 132.4 124.4L129.6 103.7L126.2 118.1C122.4 134.4 121.6 137 119.8 137C117 137 116 135 113.8 125.2C112.6 119.6 111.3 115 111 115C110.7 115 108.5 122.3 106.1 131.3C103.7 140.2 101.3 148.3 100.8 149.2C99.9 151.1 96.5 151.6 95.5 150C95.2 149.5 93.9 136.6 92.6 121.5C91.3 106.3 90 93.7 89.8 93.5C89.6 93.3 87 99.9 84 108.3Z" fill="#0D8D40"/>
</g>
<defs>
<filter id="filter0_d_1_2" x="7.70001" y="13.275" width="207.3" height="206.225" filterUnits="userSpaceOnUse" color-interpolation-filters="sRGB">
<feFlood flood-opacity="0" result="BackgroundImageFix"/>
<feColorMatrix in="SourceAlpha" type="matrix" values="0 0 0 0 0 0 0 0 0 0 0 0 0 0 0 0 0 0 127 0" result="hardAlpha"/>
<feOffset dy="4"/>
<feGaussianBlur stdDeviation="2"/>
<feComposite in2="hardAlpha" operator="out"/>
<feColorMatrix type="matrix" values="0 0 0 0 0 0 0 0 0 0 0 0 0 0 0 0 0 0 0.25 0"/>
<feBlend mode="normal" in2="BackgroundImageFix" result="effect1_dropShadow_1_2"/>
<feBlend mode="normal" in="SourceGraphic" in2="effect1_dropShadow_1_2" result="shape"/>
</filter>
</defs>
</svg>
