<svg width="34" height="33" viewBox="0 0 34 33" fill="none" xmlns="http://www.w3.org/2000/svg">
<ellipse cx="16.9729" cy="16.5" rx="14.1441" ry="13.75" fill="#C13584"/>
<path d="M16.973 9.73648C19.239 9.73648 19.5074 9.74489 20.4023 9.78459C21.2297 9.82126 21.6791 9.95566 21.9781 10.0686C22.3742 10.2183 22.6569 10.3971 22.9539 10.6858C23.2509 10.9745 23.4348 11.2493 23.5887 11.6344C23.7049 11.9251 23.8432 12.3619 23.8809 13.1663C23.9217 14.0362 23.9304 14.2971 23.9304 16.5C23.9304 18.7028 23.9217 18.9637 23.8809 19.8337C23.8432 20.638 23.7049 21.0749 23.5887 21.3656C23.4348 21.7507 23.2509 22.0255 22.9539 22.3142C22.6569 22.6029 22.3742 22.7816 21.9781 22.9313C21.6791 23.0443 21.2297 23.1787 20.4023 23.2154C19.5076 23.255 19.2392 23.2635 16.973 23.2635C14.7069 23.2635 14.4385 23.255 13.5438 23.2154C12.7164 23.1787 12.267 23.0443 11.968 22.9313C11.5718 22.7816 11.2891 22.6029 10.9922 22.3142C10.6952 22.0255 10.5113 21.7507 10.3573 21.3656C10.2411 21.0749 10.1029 20.638 10.0651 19.8337C10.0243 18.9637 10.0157 18.7028 10.0157 16.5C10.0157 14.2971 10.0243 14.0362 10.0651 13.1663C10.1029 12.3619 10.2411 11.9251 10.3573 11.6344C10.5113 11.2493 10.6952 10.9745 10.9922 10.6858C11.2891 10.3971 11.5718 10.2183 11.968 10.0686C12.267 9.95566 12.7164 9.82126 13.5438 9.78459C14.4386 9.74489 14.7071 9.73648 16.973 9.73648ZM16.973 8.25C14.6682 8.25 14.3792 8.2595 13.4741 8.29965C12.5708 8.3397 11.9539 8.47917 11.4141 8.6831C10.856 8.89393 10.3827 9.17602 9.91093 9.63466C9.43914 10.0933 9.14896 10.5534 8.93212 11.0959C8.72231 11.6207 8.57884 12.2204 8.53764 13.0985C8.49634 13.9785 8.48657 14.2594 8.48657 16.5C8.48657 18.7405 8.49634 19.0215 8.53764 19.9014C8.57884 20.7795 8.72231 21.3793 8.93212 21.904C9.14896 22.4465 9.43914 22.9066 9.91093 23.3653C10.3827 23.8239 10.856 24.106 11.4141 24.3168C11.9539 24.5208 12.5708 24.6602 13.4741 24.7003C14.3792 24.7404 14.6682 24.7499 16.973 24.7499C19.2778 24.7499 19.5668 24.7404 20.472 24.7003C21.3753 24.6602 21.9922 24.5208 22.532 24.3168C23.09 24.106 23.5633 23.8239 24.0351 23.3653C24.5069 22.9066 24.7971 22.4465 25.014 21.904C25.2237 21.3793 25.3672 20.7795 25.4084 19.9014C25.4497 19.0215 25.4595 18.7405 25.4595 16.5C25.4595 14.2594 25.4497 13.9785 25.4084 13.0985C25.3672 12.2204 25.2237 11.6207 25.014 11.0959C24.7971 10.5534 24.5069 10.0933 24.0351 9.63466C23.5633 9.17602 23.09 8.89393 22.532 8.6831C21.9922 8.47917 21.3753 8.3397 20.472 8.29965C19.5668 8.2595 19.2778 8.25 16.973 8.25Z" fill="white"/>
<path d="M16.9771 12.2676C14.5702 12.2676 12.6191 14.1643 12.6191 16.504C12.6191 18.8438 14.5702 20.7405 16.9771 20.7405C19.3839 20.7405 21.335 18.8438 21.335 16.504C21.335 14.1643 19.3839 12.2676 16.9771 12.2676ZM16.9771 19.254C15.4147 19.254 14.1482 18.0228 14.1482 16.504C14.1482 14.9853 15.4147 13.7541 16.9771 13.7541C18.5394 13.7541 19.8059 14.9853 19.8059 16.504C19.8059 18.0228 18.5394 19.254 16.9771 19.254Z" fill="white"/>
<path d="M22.5253 12.0974C22.5253 12.6442 22.0693 13.0874 21.5069 13.0874C20.9445 13.0874 20.4885 12.6442 20.4885 12.0974C20.4885 11.5507 20.9445 11.1074 21.5069 11.1074C22.0693 11.1074 22.5253 11.5507 22.5253 12.0974Z" fill="white"/>
</svg>

