<svg width="34" height="33" viewBox="0 0 34 33" fill="none" xmlns="http://www.w3.org/2000/svg">
<ellipse cx="17.0086" cy="16.5" rx="14.1441" ry="13.75" fill="#0077B5"/>
<path fill-rule="evenodd" clip-rule="evenodd" d="M13.3132 9.82017C13.3132 10.6762 12.6428 11.3689 11.5943 11.3689C10.5867 11.3689 9.91624 10.6762 9.93699 9.82017C9.91624 8.92257 10.5867 8.25 11.6144 8.25C12.6428 8.25 13.2931 8.92257 13.3132 9.82017ZM10.0213 22.5631V12.5924H13.2088V22.5625H10.0213V22.5631Z" fill="#FAFAFB"/>
<path fill-rule="evenodd" clip-rule="evenodd" d="M15.7633 15.7746C15.7633 14.5309 15.7211 13.4707 15.679 12.5939H18.4476L18.5948 13.9598H18.6577C19.0773 13.3276 20.1257 12.3701 21.8246 12.3701C23.9215 12.3701 25.4945 13.7159 25.4945 16.6507V22.5646H22.307V17.039C22.307 15.7538 21.8459 14.8776 20.6924 14.8776C19.8112 14.8776 19.2873 15.4689 19.0779 16.0393C18.9936 16.2435 18.9521 16.5285 18.9521 16.8146V22.5646H15.7645V15.7746H15.7633Z" fill="#FAFAFB"/>
</svg>
