<svg width="34" height="33" viewBox="0 0 34 33" fill="none" xmlns="http://www.w3.org/2000/svg">
<ellipse cx="16.9908" cy="16.5" rx="14.1441" ry="13.75" fill="#1DA1F2"/>
<path fill-rule="evenodd" clip-rule="evenodd" d="M25.4773 11.2122C24.8533 11.4817 24.1818 11.6632 23.4775 11.7451C24.1965 11.326 24.7486 10.6628 25.0083 9.87248C24.3362 10.2608 23.59 10.5418 22.7975 10.6941C22.1622 10.0364 21.2564 9.625 20.2557 9.625C18.3328 9.625 16.7736 11.1407 16.7736 13.01C16.7736 13.2751 16.8047 13.5336 16.8641 13.7816C13.9699 13.6408 11.4043 12.2929 9.68676 10.2448C9.38693 10.7447 9.21551 11.326 9.21551 11.9464C9.21551 13.1206 9.82932 14.1567 10.7645 14.7639C10.1931 14.7463 9.65678 14.5939 9.18666 14.3404V14.3827C9.18666 16.0233 10.3877 17.391 11.9796 17.7029C11.6877 17.7799 11.38 17.8217 11.0626 17.8217C10.838 17.8217 10.6196 17.8002 10.4069 17.7606C10.8499 19.1053 12.1364 20.0842 13.6599 20.1117C12.4684 21.0191 10.967 21.5609 9.33544 21.5609C9.05371 21.5609 8.77651 21.5449 8.50439 21.513C10.0454 22.4732 11.8756 23.0342 13.842 23.0342C20.2466 23.0342 23.749 17.8761 23.749 13.4032C23.749 13.2564 23.7462 13.1101 23.7388 12.9655C24.42 12.487 25.0106 11.8908 25.4773 11.2122Z" fill="#FAFAFB"/>
</svg>
